# This file uses centimeters as units for non-parametric coordinates.

mtllib Wall_Corner.mtl
v -175.066827 239.999847 175.067054
v -175.066766 0.000000 175.066932
v -135.148431 119.999916 175.066932
v -136.963067 209.416534 175.067054
v -136.963006 30.583307 175.066932
v -175.066827 239.999847 54.957069
v -175.066827 0.000000 54.957069
v -150.506036 228.684784 175.066932
v -150.506036 228.684769 54.957069
v -150.506097 11.315067 175.066932
v -150.506036 11.315067 54.957069
v -135.148431 185.853088 175.066932
v -135.148431 54.146767 175.066932
v -135.148431 39.140793 175.066932
v -135.148431 156.510620 175.066932
v -142.406671 219.413513 175.067054
v -160.287896 235.065063 175.067054
v -160.287896 235.065063 54.957069
v -142.406671 20.586319 175.066932
v -135.148492 200.859055 175.067054
v -135.148431 83.489220 175.066932
v -160.287896 4.934789 54.957069
v -160.287835 4.934789 175.066932
v -142.406671 20.586319 54.957069
v -136.963067 30.583307 54.957069
v -135.148492 39.140793 54.957069
v -135.148492 54.146767 54.957069
v -135.148492 83.489212 54.957069
v -135.148492 119.999916 54.957069
v -135.148492 156.510620 54.957069
v -135.148492 185.853073 54.957069
v -135.148492 200.859055 54.957069
v -136.963067 209.416519 54.957069
v -142.406671 219.413528 54.957069
v -175.066766 239.999847 160.176918
v -160.287896 235.065063 160.163246
v -150.506097 228.684784 160.149452
v -142.406671 219.413513 160.135780
v -136.963067 209.416534 160.121986
v -135.148431 200.859055 160.108192
v -135.148492 185.853088 160.094520
v -135.148431 156.510620 160.080726
v -135.148492 119.999916 160.067054
v -135.148492 83.489220 160.053260
v -135.148431 54.146767 160.039466
v -135.148492 39.140793 160.025795
v -136.963006 30.583307 160.012001
v -142.406671 20.586319 159.998329
v -150.506097 11.315067 159.984535
v -160.287835 4.934789 159.970741
v -175.066827 0.000000 159.957069
v 0.000006 239.999847 0.000160
v 0.000006 0.000000 0.000038
v 0.000006 119.999916 39.918373
v 0.000006 209.416534 38.103920
v 0.000006 30.583307 38.103798
v -120.109857 239.999847 0.000160
v -120.109857 0.000000 0.000160
v 0.000006 228.684784 24.560829
v -120.109979 228.684769 24.560829
v 0.000006 11.315067 24.560829
v -120.109979 11.315067 24.560829
v 0.000006 185.853088 39.918373
v 0.000006 54.146767 39.918373
v 0.000006 39.140793 39.918373
v 0.000006 156.510620 39.918373
v 0.000068 219.413513 32.660194
v 0.000006 235.065063 14.779090
v -120.109857 235.065063 14.779090
v 0.000006 20.586319 32.660194
v 0.000068 200.859055 39.918373
v 0.000006 83.489220 39.918373
v -120.109857 4.934789 14.779090
v 0.000006 4.934789 14.778968
v -120.109918 20.586319 32.660316
v -120.109857 30.583307 38.103920
v -120.109918 39.140793 39.918495
v -120.109857 54.146767 39.918495
v -120.109857 83.489212 39.918495
v -120.109857 119.999916 39.918495
v -120.109857 156.510620 39.918495
v -120.109857 185.853073 39.918495
v -120.109918 200.859055 39.918495
v -120.109857 209.416519 38.103920
v -120.109918 219.413528 32.660316
v -14.890008 239.999847 0.000160
v -14.903802 235.065063 14.779090
v -14.917474 228.684784 24.560951
v -14.931207 219.413513 32.660194
v -14.944940 209.416534 38.103920
v -14.958734 200.859055 39.918495
v -14.972528 185.853088 39.918495
v -14.986200 156.510620 39.918495
v -14.999994 119.999916 39.918495
v -15.013665 83.489220 39.918495
v -15.027459 54.146767 39.918495
v -15.041192 39.140793 39.918495
v -15.054925 30.583307 38.103920
v -15.068658 20.586319 32.660194
v -15.082391 11.315067 24.560951
v -15.096185 4.934789 14.779090
v -15.109857 0.000000 0.000160
v -144.761529 239.994446 3.468177
v -138.860711 235.060181 16.971229
v -134.951837 228.680252 25.907386
v -131.713189 219.409256 33.305824
v -129.533136 209.412460 38.277259
v -128.799920 200.855057 39.932167
v -128.789300 185.849091 39.928505
v -128.776849 156.506607 39.924232
v -128.763604 119.995918 39.919715
v -128.750238 83.485222 39.915077
v -128.737848 54.142769 39.910804
v -128.727227 39.136791 39.907142
v -129.440789 30.579241 38.245521
v -131.600824 20.582056 33.267250
v -134.819635 11.310516 25.862098
v -138.709466 4.929889 16.919471
v -144.591607 -0.005428 3.410194
v -171.598687 239.994446 30.305458
v -158.095758 235.060181 36.206214
v -149.159539 228.680252 40.115150
v -141.761102 219.409256 43.353798
v -136.789727 209.412460 45.533851
v -135.134759 200.855057 46.267006
v -135.138421 185.849091 46.277626
v -135.142694 156.506607 46.290077
v -135.147210 119.995918 46.303382
v -135.151849 83.485222 46.316688
v -135.156121 54.142769 46.329139
v -135.159845 39.136791 46.339759
v -136.821405 30.579241 45.626258
v -141.799676 20.582056 43.466102
v -149.204889 11.310516 40.247352
v -158.147454 4.929889 36.357460
v -171.656793 -0.005428 30.475380
v -161.238275 239.994446 13.809852
v -149.476983 235.060181 25.633461
v -142.055719 228.680252 33.011268
v -136.737176 219.409256 38.329872
v -133.161432 209.412460 41.905555
v -131.967401 200.855057 43.099647
v -131.963861 185.849091 43.103065
v -131.959771 156.506607 43.107215
v -131.955438 119.995918 43.111488
v -131.951043 83.485222 43.115882
v -131.947015 54.142769 43.120033
v -131.943475 39.136791 43.123451
v -133.131097 30.579241 41.935829
v -136.700250 20.582056 38.366737
v -142.012262 11.310516 33.054725
v -149.427240 4.929889 25.683265
v -161.182367 -0.005428 13.865760
vt 0.383488 0.546857
vt 0.383488 0.537617
vt 0.464127 0.537617
vt 0.464127 0.546857
vt 0.383488 0.524819
vt 0.464127 0.524819
vt 0.464127 0.585100
vt 0.383488 0.585100
vt 0.383488 0.573100
vt 0.464127 0.573100
vt 0.383488 0.565948
vt 0.464127 0.565948
vt 0.464127 0.665012
vt 0.383488 0.665012
vt 0.383488 0.636373
vt 0.464127 0.636373
vt 0.464127 0.688076
vt 0.383488 0.688076
vt 0.464127 0.726344
vt 0.383488 0.726344
vt 0.383488 0.716485
vt 0.464127 0.716485
vt 0.383488 0.707233
vt 0.464127 0.707233
vt 0.383488 0.748507
vt 0.383488 0.735565
vt 0.464127 0.735565
vt 0.464127 0.748507
vt 0.383488 0.556699
vt 0.464127 0.556699
vt 0.464127 0.700089
vt 0.383488 0.700089
vt 0.383488 0.608222
vt 0.464127 0.608222
vt 0.475836 0.735565
vt 0.475836 0.748507
vt 0.475836 0.726344
vt 0.475836 0.716485
vt 0.475836 0.707233
vt 0.475836 0.700089
vt 0.475836 0.688076
vt 0.475836 0.665012
vt 0.475836 0.636373
vt 0.475836 0.608222
vt 0.475836 0.585100
vt 0.475836 0.573100
vt 0.475836 0.565948
vt 0.475836 0.556699
vt 0.475836 0.546857
vt 0.475836 0.537617
vt 0.475836 0.524819
vt 0.347315 0.546857
vt 0.266934 0.546857
vt 0.266934 0.537617
vt 0.347315 0.537617
vt 0.266934 0.524819
vt 0.347315 0.524819
vt 0.266934 0.585100
vt 0.266934 0.573100
vt 0.347315 0.573100
vt 0.347315 0.585100
vt 0.266934 0.565948
vt 0.347315 0.565948
vt 0.266934 0.665012
vt 0.266934 0.636373
vt 0.347315 0.636373
vt 0.347315 0.665012
vt 0.266934 0.688076
vt 0.347315 0.688076
vt 0.266934 0.726344
vt 0.266934 0.716485
vt 0.347315 0.716485
vt 0.347315 0.726344
vt 0.266934 0.707233
vt 0.347315 0.707233
vt 0.347315 0.748507
vt 0.266934 0.748507
vt 0.266934 0.735565
vt 0.347315 0.735565
vt 0.266934 0.556699
vt 0.347315 0.556699
vt 0.266934 0.700089
vt 0.347315 0.700089
vt 0.266934 0.608222
vt 0.347315 0.608222
vt 0.255210 0.748507
vt 0.255210 0.735565
vt 0.255210 0.726344
vt 0.255210 0.716485
vt 0.255210 0.707233
vt 0.255210 0.700089
vt 0.255210 0.688076
vt 0.255210 0.665012
vt 0.255210 0.636373
vt 0.255210 0.608222
vt 0.255210 0.585100
vt 0.255210 0.573100
vt 0.255210 0.565948
vt 0.255210 0.556699
vt 0.255210 0.546857
vt 0.255210 0.537617
vt 0.255210 0.524819
vt 0.357435 0.735565
vt 0.357435 0.748507
vt 0.357435 0.726344
vt 0.357435 0.716485
vt 0.357435 0.707233
vt 0.357435 0.700089
vt 0.357435 0.688076
vt 0.357435 0.665012
vt 0.357435 0.636373
vt 0.357435 0.608222
vt 0.357435 0.585100
vt 0.357435 0.573100
vt 0.357435 0.565948
vt 0.357435 0.556699
vt 0.357435 0.546857
vt 0.357435 0.537617
vt 0.357435 0.524819
vt 0.365366 0.748507
vt 0.365366 0.735565
vt 0.373248 0.735565
vt 0.373248 0.748507
vt 0.365366 0.726344
vt 0.373248 0.726344
vt 0.365366 0.716485
vt 0.373248 0.716485
vt 0.365366 0.707233
vt 0.373248 0.707233
vt 0.365366 0.700089
vt 0.373248 0.700089
vt 0.365366 0.688076
vt 0.373248 0.688076
vt 0.365366 0.665012
vt 0.373248 0.665012
vt 0.365366 0.636373
vt 0.373248 0.636373
vt 0.365366 0.608222
vt 0.373248 0.608222
vt 0.373248 0.585100
vt 0.365366 0.585100
vt 0.365366 0.565948
vt 0.365366 0.556699
vt 0.373248 0.556699
vt 0.373248 0.565948
vt 0.365366 0.546857
vt 0.373248 0.546857
vt 0.365366 0.537617
vt 0.373248 0.537617
vt 0.365366 0.524819
vt 0.373248 0.524819
vt 0.373248 0.573100
vt 0.365366 0.573100
vn -0.658641 0.752458 -0.000000
vn -0.418434 0.908247 0.000000
vn -0.418483 0.908225 0.000000
vn -0.658691 0.752414 -0.000000
vn -0.316717 0.948520 0.000000
vn -0.316717 0.948520 0.000000
vn -1.000000 -0.000000 0.000001
vn -1.000000 -0.000000 0.000000
vn -0.997048 0.076775 0.000000
vn -0.997052 0.076724 0.000001
vn -0.931285 0.364291 0.000000
vn -0.931316 0.364212 0.000000
vn -1.000000 -0.000000 0.000001
vn -1.000000 -0.000000 0.000000
vn -1.000000 -0.000000 0.000000
vn -1.000000 0.000000 0.000001
vn -1.000000 -0.000000 0.000000
vn -1.000000 -0.000000 0.000000
vn -0.658579 -0.752512 0.000000
vn -0.658629 -0.752468 -0.000000
vn -0.818126 -0.575039 -0.000000
vn -0.818095 -0.575083 -0.000000
vn -0.931277 -0.364311 0.000000
vn -0.931246 -0.364391 -0.000000
vn -0.316717 -0.948520 0.000000
vn -0.418420 -0.908254 0.000000
vn -0.418371 -0.908276 0.000000
vn -0.316717 -0.948520 -0.000000
vn -0.818133 0.575029 0.000000
vn -0.818164 0.574986 0.000000
vn -0.997044 -0.076838 0.000000
vn -0.997048 -0.076787 0.000000
vn -1.000000 -0.000001 0.000000
vn -1.000000 -0.000001 0.000001
vn -0.418480 -0.908226 -0.000000
vn -0.316717 -0.948520 -0.000001
vn -0.658684 -0.752419 0.000001
vn -0.818160 -0.574991 0.000001
vn -0.931305 -0.364240 -0.000001
vn -0.997051 -0.076737 -0.000001
vn -1.000000 -0.000001 0.000001
vn -1.000000 0.000000 0.000002
vn -1.000000 0.000001 0.000003
vn -1.000000 -0.000001 0.000003
vn -1.000000 0.000000 0.000002
vn -0.997045 0.076825 0.000002
vn -0.931257 0.364364 0.000001
vn -0.818097 0.575080 0.000000
vn -0.658589 0.752503 0.000000
vn -0.418376 0.908274 0.000000
vn -0.316716 0.948521 0.000001
vn -0.007060 0.753246 -0.657701
vn -0.000000 0.752412 -0.658693
vn -0.000000 0.908224 -0.418485
vn -0.007442 0.909299 -0.416078
vn -0.000000 0.948520 -0.316718
vn -0.006508 0.948240 -0.317489
vn -0.000001 0.000000 -1.000000
vn -0.000001 0.076723 -0.997052
vn -0.000157 0.076683 -0.997056
vn 0.000061 0.000007 -1.000000
vn -0.000001 0.364215 -0.931315
vn -0.001899 0.364146 -0.931340
vn -0.000001 0.000000 -1.000000
vn -0.000001 0.000000 -1.000000
vn -0.000011 0.000005 -1.000000
vn -0.000048 0.000005 -1.000000
vn -0.000001 0.000000 -1.000000
vn -0.000081 0.000007 -1.000000
vn -0.000000 -0.752511 -0.658580
vn -0.000000 -0.575086 -0.818093
vn -0.004867 -0.575026 -0.818121
vn -0.007233 -0.753274 -0.657667
vn -0.000000 -0.364393 -0.931245
vn -0.002132 -0.364170 -0.931330
vn -0.006542 -0.948239 -0.317492
vn 0.000000 -0.948520 -0.316717
vn -0.000000 -0.908276 -0.418372
vn -0.007523 -0.909316 -0.416039
vn -0.000001 0.574986 -0.818163
vn -0.004646 0.575004 -0.818137
vn -0.000001 -0.076839 -0.997044
vn -0.000361 -0.076688 -0.997055
vn -0.000001 0.000000 -1.000000
vn 0.000027 0.000005 -1.000000
vn 0.000000 -0.948520 -0.316718
vn -0.000001 -0.908225 -0.418482
vn -0.000003 -0.752419 -0.658685
vn -0.000002 -0.574995 -0.818157
vn -0.000002 -0.364243 -0.931304
vn -0.000007 -0.076734 -0.997052
vn -0.000008 0.000000 -1.000000
vn -0.000008 0.000000 -1.000000
vn -0.000008 0.000000 -1.000000
vn -0.000008 0.000000 -1.000000
vn -0.000008 0.000000 -1.000000
vn -0.000008 0.076825 -0.997045
vn -0.000006 0.364365 -0.931256
vn -0.000003 0.575075 -0.818101
vn -0.000003 0.752503 -0.658588
vn -0.000003 0.908274 -0.418376
vn -0.000003 0.948520 -0.316718
vn -0.126643 -0.927566 -0.351545
vn -0.104176 -0.951787 -0.288528
vn -0.214706 -0.787430 -0.577802
vn -0.261963 -0.603356 -0.753217
vn -0.267485 -0.391795 -0.880312
vn -0.262180 -0.083171 -0.961428
vn -0.259518 -0.000025 -0.965738
vn -0.259872 -0.000019 -0.965643
vn -0.260266 -0.000018 -0.965537
vn -0.260660 -0.000019 -0.965431
vn -0.261018 -0.000026 -0.965334
vn -0.264382 0.083119 -0.960829
vn -0.269974 0.391863 -0.879521
vn -0.264144 0.603411 -0.752412
vn -0.216254 0.787537 -0.577079
vn -0.127499 0.927630 -0.351064
vn -0.104861 0.951805 -0.288221
vn -0.212304 -0.953834 -0.212434
vn -0.268668 -0.925037 -0.268560
vn -0.351625 -0.927548 -0.126548
vn -0.288625 -0.951762 -0.104136
vn -0.459383 -0.760195 -0.459424
vn -0.577905 -0.787392 -0.214569
vn -0.585138 -0.561454 -0.585135
vn -0.753220 -0.603354 -0.261961
vn -0.660594 -0.356696 -0.660593
vn -0.880313 -0.391795 -0.267482
vn -0.705124 -0.074839 -0.705123
vn -0.961428 -0.083171 -0.262181
vn -0.707107 -0.000242 -0.707107
vn -0.965738 -0.000027 -0.259520
vn -0.707107 -0.000181 -0.707106
vn -0.965642 -0.000019 -0.259874
vn -0.707108 -0.000169 -0.707105
vn -0.965536 -0.000018 -0.260269
vn -0.707109 -0.000182 -0.707105
vn -0.965430 -0.000020 -0.260663
vn -0.965334 -0.000025 -0.261018
vn -0.707109 -0.000240 -0.707105
vn -0.660822 0.355858 -0.660817
vn -0.585456 0.560789 -0.585455
vn -0.752412 0.603409 -0.264145
vn -0.879522 0.391861 -0.269975
vn -0.459777 0.759719 -0.459818
vn -0.577183 0.787498 -0.216117
vn -0.269014 0.924835 -0.268908
vn -0.351144 0.927613 -0.127405
vn -0.212488 0.953752 -0.212618
vn -0.288318 0.951780 -0.104820
vn -0.402905 -0.914003 -0.047596
vn -0.321418 -0.946019 -0.041694
vn -0.649870 -0.757811 -0.058241
vn -0.817248 -0.574290 -0.047931
vn -0.931634 -0.362546 -0.024875
vn -0.997135 -0.075505 -0.004665
vn -1.000000 0.000088 -0.001069
vn -1.000000 0.000067 -0.000635
vn -1.000000 0.000063 -0.000145
vn -1.000000 0.000067 0.000350
vn -1.000000 0.000090 0.000793
vn -0.960829 0.083120 -0.264384
vn -0.997137 0.075589 -0.002040
vn -0.931730 0.362465 -0.022338
vn -0.817403 0.574218 -0.046108
vn -0.650030 0.757751 -0.057232
vn -0.402990 0.913979 -0.047344
vn -0.321421 0.946021 -0.041638
vn -0.705161 0.074176 -0.705156
s 1
usemtl lambert2SG
f 11/1/1 22/2/2 50/3/3 49/4/4
f 50/3/3 22/2/2 7/5/5 51/6/6
f 45/7/7 27/8/8 26/9/9 46/10/10
f 46/10/10 26/9/9 25/11/11 47/12/12
f 42/13/13 30/14/14 29/15/15 43/16/16
f 41/17/17 31/18/18 30/14/14 42/13/13
f 37/19/19 9/20/20 34/21/21 38/22/22
f 38/22/22 34/21/21 33/23/23 39/24/24
f 6/25/25 18/26/26 36/27/27 35/28/28
f 47/12/12 25/11/11 24/29/29 48/30/30
f 48/30/30 24/29/29 11/1/1 49/4/4
f 40/31/31 32/32/32 31/18/18 41/17/17
f 39/24/24 33/23/23 32/32/32 40/31/31
f 43/16/16 29/15/15 28/33/33 44/34/34
f 44/34/34 28/33/33 27/8/8 45/7/7
f 37/19/19 36/27/27 18/26/26 9/20/20
f 36/27/27 17/35/35 1/36/36 35/28/28
f 37/19/19 8/37/37 17/35/35 36/27/27
f 8/37/37 37/19/19 38/22/22 16/38/38
f 16/38/38 38/22/22 39/24/24 4/39/39
f 40/31/31 20/40/40 4/39/39 39/24/24
f 41/17/17 12/41/41 20/40/40 40/31/31
f 42/13/13 15/42/42 12/41/41 41/17/17
f 43/16/16 3/43/43 15/42/42 42/13/13
f 3/43/43 43/16/16 44/34/34 21/44/44
f 21/44/44 44/34/34 45/7/7 13/45/45
f 13/45/45 45/7/7 46/10/10 14/46/46
f 14/46/46 46/10/10 47/12/12 5/47/47
f 5/47/47 47/12/12 48/30/30 19/48/48
f 19/48/48 48/30/30 49/4/4 10/49/49
f 10/49/49 49/4/4 50/3/3 23/50/50
f 23/50/50 50/3/3 51/6/6 2/51/51
s 5
f 62/52/52 100/53/53 101/54/54 73/55/55
f 101/54/54 102/56/56 58/57/57 73/55/55
f 96/58/58 97/59/59 77/60/60 78/61/61
f 97/59/59 98/62/62 76/63/63 77/60/60
f 93/64/64 94/65/65 80/66/66 81/67/67
f 92/68/68 93/64/64 81/67/67 82/69/69
f 88/70/70 89/71/71 85/72/72 60/73/73
f 89/71/71 90/74/74 84/75/75 85/72/72
f 57/76/76 86/77/77 87/78/78 69/79/79
f 98/62/62 99/80/80 75/81/81 76/63/63
f 99/80/80 100/53/53 62/52/52 75/81/81
f 91/82/82 92/68/68 82/69/69 83/83/83
f 90/74/74 91/82/82 83/83/83 84/75/75
f 94/65/65 95/84/84 79/85/85 80/66/66
f 95/84/84 96/58/58 78/61/61 79/85/85
f 88/70/70 60/73/73 69/79/79 87/78/78
f 87/78/78 86/77/77 52/86/86 68/87/87
f 88/70/70 87/78/78 68/87/87 59/88/88
f 59/88/88 67/89/89 89/71/71 88/70/70
f 67/89/89 55/90/90 90/74/74 89/71/71
f 91/82/82 90/74/74 55/90/90 71/91/91
f 92/68/68 91/82/82 71/91/91 63/92/92
f 93/64/64 92/68/68 63/92/92 66/93/93
f 94/65/65 93/64/64 66/93/93 54/94/94
f 54/94/94 72/95/95 95/84/84 94/65/65
f 72/95/95 64/96/96 96/58/58 95/84/84
f 64/96/96 65/97/97 97/59/59 96/58/58
f 65/97/97 56/98/98 98/62/62 97/59/59
f 56/98/98 70/99/99 99/80/80 98/62/62
f 70/99/99 61/100/100 100/53/53 99/80/80
f 61/100/100 74/101/101 101/54/54 100/53/53
f 74/101/101 53/102/102 102/56/56 101/54/54
f 104/103/103 103/104/104 57/76/76 69/79/79
f 105/105/105 104/103/103 69/79/79 60/73/73
f 106/106/106 105/105/105 60/73/73 85/72/72
f 107/107/107 106/106/106 85/72/72 84/75/75
f 108/108/108 107/107/107 84/75/75 83/83/83
f 109/109/109 108/108/108 83/83/83 82/69/69
f 110/110/110 109/109/109 82/69/69 81/67/67
f 111/111/111 110/110/110 81/67/67 80/66/66
f 112/112/112 111/111/111 80/66/66 79/85/85
f 113/113/113 112/112/112 79/85/85 78/61/61
f 114/114/114 113/113/113 78/61/61 77/60/60
f 115/115/115 114/114/114 77/60/60 76/63/63
f 116/116/116 115/115/115 76/63/63 75/81/81
f 117/117/117 116/116/116 75/81/81 62/52/52
f 118/118/118 117/117/117 62/52/52 73/55/55
f 119/119/119 118/118/118 73/55/55 58/57/57
f 137/120/120 138/121/121 121/122/122 120/123/123
f 138/121/121 139/124/124 122/125/125 121/122/122
f 139/124/124 140/126/126 123/127/127 122/125/125
f 140/126/126 141/128/128 124/129/129 123/127/127
f 141/128/128 142/130/130 125/131/131 124/129/129
f 142/130/130 143/132/132 126/133/133 125/131/131
f 143/132/132 144/134/134 127/135/135 126/133/133
f 144/134/134 145/136/136 128/137/137 127/135/135
f 145/136/136 146/138/138 129/139/139 128/137/137
f 130/140/140 129/139/139 146/138/138 147/141/141
f 149/142/142 150/143/143 133/144/144 132/145/145
f 150/143/143 151/146/146 134/147/147 133/144/144
f 151/146/146 152/148/148 135/149/149 134/147/147
f 152/148/148 153/150/150 136/151/151 135/149/149
f 121/122/122 18/26/152 6/25/153 120/123/123
f 122/125/125 9/20/154 18/26/152 121/122/122
f 123/127/127 34/21/155 9/20/154 122/125/125
f 124/129/129 33/23/156 34/21/155 123/127/127
f 125/131/131 32/32/157 33/23/156 124/129/129
f 126/133/133 31/18/158 32/32/157 125/131/131
f 127/135/135 30/14/159 31/18/158 126/133/133
f 128/137/137 29/15/160 30/14/159 127/135/135
f 129/139/139 28/33/161 29/15/160 128/137/137
f 130/140/140 27/8/162 28/33/161 129/139/139
f 131/152/163 26/9/164 27/8/162 130/140/140
f 132/145/145 25/11/165 26/9/164 131/152/163
f 133/144/144 24/29/166 25/11/165 132/145/145
f 134/147/147 11/1/167 24/29/166 133/144/144
f 135/149/149 22/2/168 11/1/167 134/147/147
f 136/151/151 7/5/169 22/2/168 135/149/149
f 130/140/140 147/141/141 148/153/170 131/152/163
f 131/152/163 148/153/170 149/142/142 132/145/145
f 104/103/103 138/121/121 137/120/120 103/104/104
f 105/105/105 139/124/124 138/121/121 104/103/103
f 106/106/106 140/126/126 139/124/124 105/105/105
f 107/107/107 141/128/128 140/126/126 106/106/106
f 108/108/108 142/130/130 141/128/128 107/107/107
f 109/109/109 143/132/132 142/130/130 108/108/108
f 110/110/110 144/134/134 143/132/132 109/109/109
f 111/111/111 145/136/136 144/134/134 110/110/110
f 112/112/112 146/138/138 145/136/136 111/111/111
f 147/141/141 146/138/138 112/112/112 113/113/113
f 148/153/170 147/141/141 113/113/113 114/114/114
f 149/142/142 148/153/170 114/114/114 115/115/115
f 116/116/116 150/143/143 149/142/142 115/115/115
f 117/117/117 151/146/146 150/143/143 116/116/116
f 118/118/118 152/148/148 151/146/146 117/117/117
f 119/119/119 153/150/150 152/148/148 118/118/118
