# This file uses centimeters as units for non-parametric coordinates.

mtllib Floor_Door.mtl
v 100.653198 1.811698 378.345296
v 100.653198 1.811698 447.527425
v 155.610046 1.811698 323.388386
v 223.658264 1.811698 323.388264
v 104.063232 1.811698 353.863606
v 114.518860 1.811698 337.272786
v 131.128357 1.811698 326.798421
v 0.000061 0.345917 438.429768
v 0.000061 -0.064197 378.010091
v 0.000061 -0.064182 351.922200
v 0.000061 -0.064197 223.859212
v 0.000061 -0.064182 332.552571
v 108.725037 -0.064212 223.859212
v 128.057434 -0.064182 223.859212
v 92.850037 0.172965 377.908406
v 92.850037 0.172965 438.429768
v 154.505432 -0.064197 223.859212
v 216.509888 0.172965 223.859212
v 154.461365 0.172965 316.596760
v 216.298462 0.172965 316.596760
v 96.545227 0.172965 351.816731
v 108.680847 0.172965 332.560384
v 127.963684 0.172965 320.399983
v 0.000061 0.000001 447.718343
v 92.848022 0.172963 447.718343
v 223.500183 1.811698 223.859212
v 100.653198 1.811698 438.475911
v -100.653259 1.811698 378.345296
v -100.653259 1.811698 447.527425
v -155.610046 1.811698 323.388386
v -223.658142 1.811698 323.388264
v -104.063171 1.811698 353.863606
v -114.518860 1.811698 337.272786
v -131.128357 1.811698 326.798421
v -108.725037 -0.064212 223.859212
v -128.057434 -0.064182 223.859212
v -92.850037 0.172965 377.908406
v -92.850037 0.172965 438.429768
v -154.505432 -0.064197 223.859212
v -216.509949 0.172965 223.859212
v -154.461365 0.172965 316.596760
v -216.298523 0.172965 316.596760
v -96.545227 0.172965 351.816731
v -108.680847 0.172965 332.560384
v -127.963684 0.172965 320.399983
v -92.848083 0.172963 447.718343
v -223.500183 1.811698 223.859212
v -100.653259 1.811698 438.475911
v -100.653259 1.811698 69.373372
v -100.653259 1.811698 0.191243
v -155.610046 1.811698 124.330159
v -223.658142 1.811698 124.330159
v -104.063171 1.811698 93.855061
v -114.518860 1.811698 110.445637
v -131.128357 1.811698 120.920247
v 0.000061 0.345917 9.288655
v 0.000061 -0.064197 69.708333
v 0.000061 -0.064182 95.796223
v 0.000061 -0.064182 115.166096
v -92.850037 0.172965 69.810139
v -92.850037 0.172965 9.288655
v -154.461365 0.172965 131.121907
v -216.298523 0.172965 131.121907
v -96.545227 0.172965 95.901814
v -108.680847 0.172965 115.158162
v -127.963684 0.172965 127.318562
v 0.000061 0.000001 0.000081
v -92.848083 0.172963 0.000081
v -100.653259 1.811698 9.242635
v 100.653198 1.811698 69.373372
v 100.653198 1.811698 0.191243
v 155.610046 1.811698 124.330159
v 223.658264 1.811698 124.330159
v 104.063232 1.811698 93.855061
v 114.518860 1.811698 110.445637
v 131.128357 1.811698 120.920247
v 92.850037 0.172965 69.810139
v 92.850037 0.172965 9.288655
v 154.461365 0.172965 131.121907
v 216.298462 0.172965 131.121907
v 96.545227 0.172965 95.901814
v 108.680847 0.172965 115.158162
v 127.963684 0.172965 127.318562
v 92.848022 0.172963 0.000081
v 100.653198 1.811698 9.242635
vt 0.364296 0.569865
vt 0.264189 0.569756
vt 0.264189 0.504672
vt 0.364296 0.504672
vt 0.497621 0.735806
vt 0.430770 0.735806
vt 0.430723 0.635910
vt 0.497393 0.635910
vt 0.368280 0.597971
vt 0.264189 0.597858
vt 0.264189 0.618722
vt 0.381364 0.618714
vt 0.381411 0.735806
vt 0.264189 0.735806
vt 0.402255 0.735806
vt 0.402154 0.631813
vt 0.372709 0.504623
vt 0.372709 0.569395
vt 0.431961 0.628594
vt 0.505328 0.628594
vt 0.376385 0.595766
vt 0.387658 0.613638
vt 0.405566 0.624921
vt 0.364293 0.494667
vt 0.372709 0.494872
vt 0.264189 0.494667
vt 0.505157 0.735806
vt 0.164081 0.569865
vt 0.164081 0.504672
vt 0.030756 0.735806
vt 0.030984 0.635910
vt 0.097654 0.635910
vt 0.097607 0.735806
vt 0.160097 0.597971
vt 0.147013 0.618714
vt 0.146966 0.735806
vt 0.126122 0.735806
vt 0.126223 0.631813
vt 0.155668 0.569395
vt 0.155668 0.504623
vt 0.096416 0.628594
vt 0.023049 0.628594
vt 0.151992 0.595766
vt 0.140719 0.613638
vt 0.122811 0.624921
vt 0.155668 0.494872
vt 0.164083 0.494667
vt 0.023219 0.735806
vt 0.164081 0.901746
vt 0.264189 0.901856
vt 0.264189 0.966940
vt 0.164081 0.966940
vt 0.097654 0.835702
vt 0.030984 0.835702
vt 0.160097 0.873641
vt 0.264189 0.873754
vt 0.264189 0.852889
vt 0.147013 0.852898
vt 0.126223 0.839799
vt 0.155668 0.966989
vt 0.155668 0.902217
vt 0.096416 0.843018
vt 0.023049 0.843018
vt 0.151992 0.875845
vt 0.140719 0.857974
vt 0.122811 0.846691
vt 0.164083 0.976945
vt 0.155668 0.976739
vt 0.264189 0.976945
vt 0.364296 0.901746
vt 0.364296 0.966940
vt 0.497393 0.835702
vt 0.430723 0.835702
vt 0.368280 0.873641
vt 0.381364 0.852898
vt 0.402154 0.839799
vt 0.372709 0.902217
vt 0.372709 0.966989
vt 0.431961 0.843018
vt 0.505328 0.843018
vt 0.376385 0.875845
vt 0.387658 0.857974
vt 0.405566 0.846691
vt 0.372709 0.976739
vt 0.364293 0.976945
vn -0.001047 0.999997 -0.002349
vn -0.001006 0.999997 -0.002410
vn -0.000301 1.000000 -0.000460
vn -0.000301 1.000000 -0.000461
vn -0.001915 0.999997 -0.001281
vn -0.001388 0.999998 -0.001653
vn -0.001355 0.999998 -0.001676
vn -0.001915 0.999997 -0.001281
vn -0.002399 0.999997 -0.000476
vn -0.002419 0.999997 -0.000421
vn -0.001266 0.999999 -0.001039
vn -0.001167 0.999999 -0.001167
vn -0.001039 0.999999 -0.001267
vn -0.001091 0.999999 -0.001091
vn -0.000422 0.999997 -0.002420
vn -0.000477 0.999997 -0.002401
vn -0.205522 0.978652 -0.000003
vn -0.205522 0.978652 -0.000003
vn -0.205278 0.978666 -0.008614
vn -0.205284 0.978666 -0.008406
vn -0.008556 0.972287 -0.233635
vn -0.142434 0.985935 -0.087439
vn -0.135535 0.986227 -0.094797
vn -0.010168 0.972313 -0.233460
vn -0.194123 0.978557 -0.068868
vn -0.195338 0.978626 -0.064302
vn -0.149913 0.976647 -0.153904
vn -0.154063 0.976790 -0.148812
vn -0.070409 0.974376 -0.213620
vn -0.076308 0.974531 -0.210873
vn -0.205501 0.978657 -0.000022
vn -0.205501 0.978657 -0.000022
vn -0.000000 0.999827 0.018617
vn -0.000000 0.999827 0.018617
vn -0.222632 0.974903 -0.000062
vn -0.222632 0.974903 -0.000062
vn 0.001047 0.999997 -0.002349
vn 0.000301 1.000000 -0.000460
vn 0.000301 1.000000 -0.000460
vn 0.001006 0.999997 -0.002410
vn 0.001915 0.999997 -0.001281
vn 0.001915 0.999997 -0.001281
vn 0.001355 0.999998 -0.001676
vn 0.001388 0.999998 -0.001653
vn 0.002399 0.999997 -0.000476
vn 0.002419 0.999997 -0.000421
vn 0.001266 0.999999 -0.001039
vn 0.001167 0.999999 -0.001167
vn 0.001039 0.999999 -0.001267
vn 0.001091 0.999999 -0.001091
vn 0.000422 0.999997 -0.002420
vn 0.000477 0.999997 -0.002401
vn 0.205521 0.978653 -0.000003
vn 0.205283 0.978667 -0.008406
vn 0.205277 0.978666 -0.008614
vn 0.205521 0.978653 -0.000003
vn 0.008556 0.972287 -0.233635
vn 0.010168 0.972313 -0.233459
vn 0.135537 0.986227 -0.094797
vn 0.142434 0.985934 -0.087441
vn 0.195338 0.978626 -0.064302
vn 0.194123 0.978557 -0.068868
vn 0.154063 0.976790 -0.148813
vn 0.149913 0.976647 -0.153905
vn 0.076308 0.974530 -0.210873
vn 0.070409 0.974376 -0.213620
vn 0.205500 0.978657 -0.000022
vn 0.205500 0.978657 -0.000022
vn 0.000000 0.999827 0.018617
vn 0.000000 0.999827 0.018617
vn 0.222636 0.974902 -0.000062
vn 0.222636 0.974902 -0.000062
vn 0.001047 0.999997 0.002349
vn 0.001006 0.999997 0.002410
vn 0.000301 1.000000 0.000460
vn 0.000301 1.000000 0.000460
vn 0.001915 0.999997 0.001281
vn 0.001388 0.999998 0.001653
vn 0.001355 0.999998 0.001676
vn 0.001915 0.999997 0.001281
vn 0.002399 0.999997 0.000476
vn 0.002419 0.999997 0.000421
vn 0.001266 0.999999 0.001039
vn 0.001167 0.999999 0.001167
vn 0.001039 0.999999 0.001267
vn 0.001091 0.999999 0.001091
vn 0.000422 0.999997 0.002420
vn 0.000477 0.999997 0.002401
vn 0.205521 0.978653 0.000003
vn 0.205521 0.978653 0.000003
vn 0.205277 0.978666 0.008614
vn 0.205283 0.978667 0.008406
vn 0.008555 0.972288 0.233631
vn 0.142431 0.985935 0.087443
vn 0.135536 0.986227 0.094796
vn 0.010168 0.972314 0.233456
vn 0.194123 0.978557 0.068869
vn 0.195339 0.978626 0.064302
vn 0.149913 0.976647 0.153904
vn 0.154063 0.976790 0.148813
vn 0.070409 0.974376 0.213620
vn 0.076308 0.974531 0.210873
vn 0.205502 0.978657 0.000022
vn 0.205502 0.978657 0.000022
vn 0.000000 0.999827 -0.018617
vn 0.000000 0.999827 -0.018617
vn 0.222635 0.974902 0.000062
vn 0.222635 0.974902 0.000062
vn -0.001047 0.999997 0.002349
vn -0.000301 1.000000 0.000461
vn -0.000301 1.000000 0.000460
vn -0.001006 0.999997 0.002410
vn -0.001915 0.999997 0.001281
vn -0.001915 0.999997 0.001281
vn -0.001355 0.999998 0.001676
vn -0.001388 0.999998 0.001653
vn -0.002399 0.999997 0.000476
vn -0.002419 0.999997 0.000421
vn -0.001266 0.999999 0.001039
vn -0.001167 0.999999 0.001167
vn -0.001039 0.999999 0.001267
vn -0.001091 0.999999 0.001091
vn -0.000422 0.999997 0.002420
vn -0.000477 0.999997 0.002401
vn -0.205522 0.978652 0.000003
vn -0.205284 0.978666 0.008406
vn -0.205278 0.978666 0.008614
vn -0.205522 0.978653 0.000003
vn -0.008555 0.972288 0.233631
vn -0.010168 0.972314 0.233455
vn -0.135534 0.986227 0.094795
vn -0.142431 0.985935 0.087440
vn -0.195338 0.978626 0.064302
vn -0.194123 0.978557 0.068869
vn -0.154062 0.976790 0.148813
vn -0.149913 0.976647 0.153904
vn -0.076308 0.974531 0.210873
vn -0.070409 0.974376 0.213619
vn -0.205503 0.978657 0.000022
vn -0.205503 0.978657 0.000022
vn -0.000000 0.999827 -0.018617
vn -0.000000 0.999827 -0.018617
vn -0.222632 0.974903 0.000062
vn -0.222632 0.974903 0.000062
s 1
usemtl lambert3SG
f 15/1/1 9/2/2 8/3/3 16/4/4
f 18/5/5 17/6/6 19/7/7 20/8/8
f 21/9/9 10/10/10 9/2/2 15/1/1
f 12/11/11 10/10/10 21/9/9 22/12/12
f 13/13/13 11/14/14 12/11/11 22/12/12
f 14/15/15 13/13/13 22/12/12 23/16/16
f 17/6/6 14/15/15 23/16/16 19/7/7
s 3
f 16/4/17 27/17/18 1/18/19 15/1/20
f 3/19/21 4/20/22 20/8/23 19/7/24
f 1/18/19 5/21/25 21/9/26 15/1/20
f 5/21/25 6/22/27 22/12/28 21/9/26
f 6/22/27 7/23/29 23/16/30 22/12/28
f 7/23/29 3/19/21 19/7/24 23/16/30
f 16/4/17 25/24/31 2/25/32 27/17/18
s 1
f 16/4/4 8/3/3 24/26/33 25/24/34
s 3
f 18/5/35 20/8/23 4/20/22 26/27/36
s 5
f 37/28/37 38/29/38 8/3/39 9/2/40
f 40/30/41 42/31/42 41/32/43 39/33/44
f 43/34/45 37/28/37 9/2/40 10/10/46
f 12/11/47 44/35/48 43/34/45 10/10/46
f 35/36/49 44/35/48 12/11/47 11/14/50
f 36/37/51 45/38/52 44/35/48 35/36/49
f 39/33/44 41/32/43 45/38/52 36/37/51
s 7
f 38/29/53 37/28/54 28/39/55 48/40/56
f 30/41/57 41/32/58 42/31/59 31/42/60
f 28/39/55 37/28/54 43/34/61 32/43/62
f 32/43/62 43/34/61 44/35/63 33/44/64
f 33/44/64 44/35/63 45/38/65 34/45/66
f 34/45/66 45/38/65 41/32/58 30/41/57
f 38/29/53 48/40/56 29/46/67 46/47/68
s 5
f 38/29/38 46/47/69 24/26/70 8/3/39
s 7
f 40/30/71 47/48/72 31/42/60 42/31/59
s 9
f 60/49/73 57/50/74 56/51/75 61/52/76
f 40/30/77 39/33/78 62/53/79 63/54/80
f 64/55/81 58/56/82 57/50/74 60/49/73
f 59/57/83 58/56/82 64/55/81 65/58/84
f 35/36/85 11/14/86 59/57/83 65/58/84
f 36/37/87 35/36/85 65/58/84 66/59/88
f 39/33/78 36/37/87 66/59/88 62/53/79
s 11
f 61/52/89 69/60/90 49/61/91 60/49/92
f 51/62/93 52/63/94 63/54/95 62/53/96
f 49/61/91 53/64/97 64/55/98 60/49/92
f 53/64/97 54/65/99 65/58/100 64/55/98
f 54/65/99 55/66/101 66/59/102 65/58/100
f 55/66/101 51/62/93 62/53/96 66/59/102
f 61/52/89 68/67/103 50/68/104 69/60/90
s 9
f 61/52/76 56/51/75 67/69/105 68/67/106
s 11
f 40/30/107 63/54/95 52/63/94 47/48/108
s 13
f 77/70/109 78/71/110 56/51/111 57/50/112
f 18/5/113 80/72/114 79/73/115 17/6/116
f 81/74/117 77/70/109 57/50/112 58/56/118
f 59/57/119 82/75/120 81/74/117 58/56/118
f 13/13/121 82/75/120 59/57/119 11/14/122
f 14/15/123 83/76/124 82/75/120 13/13/121
f 17/6/116 79/73/115 83/76/124 14/15/123
s 15
f 78/71/125 77/70/126 70/77/127 85/78/128
f 72/79/129 79/73/130 80/72/131 73/80/132
f 70/77/127 77/70/126 81/74/133 74/81/134
f 74/81/134 81/74/133 82/75/135 75/82/136
f 75/82/136 82/75/135 83/76/137 76/83/138
f 76/83/138 83/76/137 79/73/130 72/79/129
f 78/71/125 85/78/128 71/84/139 84/85/140
s 13
f 78/71/110 84/85/141 67/69/142 56/51/111
s 15
f 18/5/143 26/27/144 73/80/132 80/72/131
