# This file uses centimeters as units for non-parametric coordinates.

mtllib Floor_FourWay.mtl
v -100.000031 1.348347 369.123494
v -100.000031 1.348347 429.144490
v -214.382233 1.348347 314.570515
v -154.956940 1.348347 314.570515
v -103.410065 1.348347 345.045735
v -113.865631 1.348347 328.455037
v -130.475189 1.348347 317.980550
v 100.000031 1.348347 369.123494
v 100.000031 1.348347 429.144490
v 154.956879 1.348347 314.570515
v 214.382233 1.348347 314.570515
v 103.410004 1.348347 345.045735
v 113.865692 1.348347 328.455037
v 130.475189 1.348347 317.980550
v -128.057465 -0.292653 214.570515
v -108.725067 -0.292684 214.570637
v -92.850006 -0.292669 368.619710
v -92.850006 -0.292695 429.141194
v 0.000031 -0.292695 429.141194
v 0.000031 -0.292669 368.721516
v -214.211639 -0.292669 214.570515
v -154.505524 -0.292669 214.570637
v -214.423126 -0.292669 307.420491
v -154.461334 -0.292669 307.420491
v -96.545197 -0.292669 342.528035
v 0.000031 -0.292653 342.633626
v 0.000031 -0.292669 214.570637
v 0.000031 -0.292653 323.263875
v -108.680817 -0.292671 323.271687
v -127.963654 -0.292671 311.111287
v 108.725098 -0.292684 214.570637
v 128.057495 -0.292653 214.570515
v 92.850067 -0.292669 368.619710
v 92.850067 -0.292695 429.141194
v 154.505524 -0.292669 214.570637
v 214.211670 -0.292669 214.570515
v 154.461395 -0.292669 307.420491
v 214.000214 -0.292669 307.420491
v 96.545258 -0.292667 342.528035
v 108.680878 -0.292671 323.271687
v 127.963715 -0.292671 311.111287
v 100.000031 1.348347 60.017659
v 100.000031 1.348347 -0.003215
v 214.382233 1.348347 114.570760
v 154.956940 1.348347 114.570760
v 103.410065 1.348347 84.095540
v 113.865692 1.348347 100.686238
v 130.475189 1.348347 111.160725
v -100.000031 1.348347 60.017659
v -100.000031 1.348347 -0.003215
v -154.956818 1.348347 114.570760
v -214.382233 1.348347 114.570760
v -103.409943 1.348347 84.095540
v -113.865631 1.348347 100.686238
v -130.475128 1.348347 111.160725
v 92.850006 -0.292669 60.521443
v 92.850006 -0.292695 0.000081
v 0.000031 -0.292695 0.000081
v 0.000031 -0.292669 60.419759
v 214.423187 -0.292669 121.720784
v 154.461334 -0.292669 121.720784
v 96.545258 -0.292669 86.613118
v 0.000031 -0.292653 86.507649
v 0.000031 -0.292653 105.877400
v 108.680817 -0.292671 105.869466
v 127.963715 -0.292671 118.029866
v -92.850006 -0.292669 60.521443
v -92.850006 -0.292695 0.000081
v -154.461334 -0.292669 121.720784
v -214.000153 -0.292669 121.720784
v -96.545197 -0.292667 86.613118
v -108.680817 -0.292671 105.869466
v -127.963654 -0.292671 118.029866
vt 0.154078 0.088241
vt 0.154078 0.023058
vt 0.254150 0.023058
vt 0.254150 0.088132
vt 0.023277 0.254156
vt 0.023049 0.154154
vt 0.087675 0.154154
vt 0.087627 0.254156
vt 0.150096 0.116343
vt 0.254150 0.116229
vt 0.254150 0.137091
vt 0.137016 0.137082
vt 0.136969 0.254156
vt 0.254150 0.254156
vt 0.116132 0.254156
vt 0.116234 0.150179
vt 0.354223 0.088241
vt 0.354223 0.023058
vt 0.485024 0.254156
vt 0.420674 0.254156
vt 0.420626 0.154154
vt 0.484796 0.154154
vt 0.358205 0.116343
vt 0.371285 0.137082
vt 0.371332 0.254156
vt 0.392168 0.254156
vt 0.392067 0.150179
vt 0.146372 0.087699
vt 0.146372 0.023055
vt 0.023093 0.146454
vt 0.087141 0.146454
vt 0.142697 0.113631
vt 0.131428 0.131500
vt 0.113527 0.142781
vt 0.361929 0.023055
vt 0.361929 0.087699
vt 0.421160 0.146454
vt 0.485208 0.146454
vt 0.365604 0.113631
vt 0.376873 0.131500
vt 0.394774 0.142781
vt 0.354223 0.420071
vt 0.354223 0.485254
vt 0.254150 0.485254
vt 0.254150 0.420180
vt 0.485252 0.354158
vt 0.420626 0.354158
vt 0.358205 0.391969
vt 0.254150 0.392083
vt 0.254150 0.371221
vt 0.371285 0.371230
vt 0.392067 0.358133
vt 0.154078 0.420071
vt 0.154078 0.485254
vt 0.087675 0.354158
vt 0.023505 0.354158
vt 0.150096 0.391969
vt 0.137016 0.371230
vt 0.116234 0.358133
vt 0.361929 0.420613
vt 0.361929 0.485257
vt 0.485208 0.361858
vt 0.421160 0.361858
vt 0.365604 0.394681
vt 0.376873 0.376812
vt 0.394774 0.365531
vt 0.146372 0.485257
vt 0.146372 0.420613
vt 0.087141 0.361858
vt 0.023093 0.361858
vt 0.142697 0.394681
vt 0.131428 0.376812
vt 0.113527 0.365531
vn -0.000000 1.000000 0.000000
vn -0.000000 1.000000 0.000000
vn -0.000000 1.000000 0.000000
vn -0.000000 1.000000 0.000000
vn 0.000000 1.000000 -0.000000
vn 0.000000 1.000000 -0.000000
vn -0.000000 1.000000 0.000000
vn -0.000000 1.000000 0.000000
vn -0.000000 1.000000 0.000000
vn -0.000000 1.000000 0.000000
vn -0.000000 1.000000 -0.000000
vn -0.000000 1.000000 -0.000000
vn -0.000000 1.000000 -0.000000
vn -0.000000 1.000000 -0.000000
vn 0.000000 1.000000 0.000000
vn 0.000000 1.000000 0.000000
vn 0.000000 1.000000 0.000000
vn 0.000000 1.000000 0.000000
vn 0.000000 1.000000 0.000000
vn 0.000000 1.000000 0.000000
vn 0.000000 1.000000 0.000000
vn 0.000000 1.000000 0.000000
vn 0.000000 1.000000 0.000000
vn 0.000000 1.000000 0.000000
vn 0.000000 1.000000 0.000000
vn 0.000000 1.000000 0.000000
vn 0.000000 1.000000 -0.000000
vn 0.000000 1.000000 -0.000000
vn 0.000000 1.000000 -0.000000
vn 0.000000 1.000000 -0.000000
vn -0.000000 1.000000 0.000000
vn -0.000000 1.000000 0.000000
vn 0.223066 0.974759 -0.009284
vn 0.223698 0.974658 0.000000
vn 0.223698 0.974658 0.000000
vn 0.223066 0.974759 -0.009284
vn 0.000000 0.974659 -0.223696
vn 0.009298 0.974757 -0.223074
vn 0.009298 0.974757 -0.223074
vn 0.000000 0.974659 -0.223696
vn 0.207030 0.975720 -0.071475
vn 0.207030 0.975720 -0.071475
vn 0.154450 0.975853 -0.154454
vn 0.154450 0.975853 -0.154454
vn 0.070913 0.975732 -0.207169
vn 0.070914 0.975732 -0.207169
vn -0.223700 0.974658 0.000000
vn -0.223068 0.974759 -0.009284
vn -0.223068 0.974759 -0.009284
vn -0.223700 0.974658 0.000000
vn -0.009321 0.974757 -0.223072
vn 0.000000 0.974659 -0.223696
vn 0.000000 0.974659 -0.223696
vn -0.009321 0.974757 -0.223072
vn -0.207031 0.975720 -0.071476
vn -0.207031 0.975720 -0.071476
vn -0.154450 0.975853 -0.154455
vn -0.154450 0.975853 -0.154455
vn -0.070914 0.975732 -0.207169
vn -0.070914 0.975732 -0.207169
vn 0.000000 1.000000 -0.000000
vn 0.000000 1.000000 -0.000000
vn 0.000000 1.000000 -0.000000
vn 0.000000 1.000000 -0.000000
vn 0.000000 1.000000 0.000000
vn 0.000000 1.000000 0.000000
vn 0.000000 1.000000 -0.000000
vn 0.000000 1.000000 -0.000000
vn 0.000000 1.000000 -0.000000
vn 0.000000 1.000000 -0.000000
vn 0.000000 1.000000 0.000000
vn 0.000000 1.000000 0.000000
vn 0.000000 1.000000 0.000000
vn 0.000000 1.000000 0.000000
vn -0.000000 1.000000 -0.000000
vn -0.000000 1.000000 -0.000000
vn -0.000000 1.000000 -0.000000
vn -0.000000 1.000000 -0.000000
vn -0.000000 1.000000 -0.000000
vn -0.000000 1.000000 -0.000000
vn 0.000000 1.000000 0.000000
vn -0.000000 1.000000 -0.000000
vn -0.000000 1.000000 -0.000000
vn 0.000000 1.000000 0.000000
vn -0.000000 1.000000 -0.000000
vn -0.000000 1.000000 -0.000000
vn -0.000000 1.000000 0.000000
vn -0.000000 1.000000 0.000000
vn -0.000000 1.000000 0.000000
vn -0.000000 1.000000 0.000000
vn 0.000000 1.000000 -0.000000
vn 0.000000 1.000000 -0.000000
vn -0.223066 0.974759 0.009284
vn -0.223698 0.974659 -0.000000
vn -0.223698 0.974659 -0.000000
vn -0.223066 0.974759 0.009284
vn 0.000000 0.974659 0.223696
vn -0.009298 0.974757 0.223074
vn -0.009298 0.974757 0.223074
vn 0.000000 0.974659 0.223696
vn -0.207031 0.975720 0.071476
vn -0.207031 0.975720 0.071475
vn -0.154451 0.975852 0.154456
vn -0.154452 0.975853 0.154456
vn -0.070914 0.975731 0.207171
vn -0.070914 0.975731 0.207171
vn 0.223699 0.974658 -0.000000
vn 0.223067 0.974759 0.009284
vn 0.223067 0.974759 0.009284
vn 0.223699 0.974658 -0.000000
vn 0.009321 0.974757 0.223073
vn 0.000000 0.974659 0.223696
vn 0.000000 0.974659 0.223696
vn 0.009321 0.974757 0.223073
vn 0.207031 0.975720 0.071476
vn 0.207031 0.975720 0.071476
vn 0.154452 0.975852 0.154457
vn 0.154452 0.975852 0.154456
vn 0.070914 0.975731 0.207171
vn 0.070914 0.975731 0.207171
s 1
usemtl lambert3SG
f 17/1/1 18/2/2 19/3/3 20/4/4
f 21/5/5 23/6/6 24/7/7 22/8/8
f 25/9/9 17/1/1 20/4/4 26/10/10
f 28/11/11 29/12/12 25/9/9 26/10/10
f 16/13/13 29/12/12 28/11/11 27/14/14
f 15/15/15 30/16/16 29/12/12 16/13/13
f 22/8/8 24/7/7 30/16/16 15/15/15
s 3
f 33/17/17 20/4/18 19/3/19 34/18/20
f 36/19/21 35/20/22 37/21/23 38/22/24
f 39/23/25 26/10/26 20/4/18 33/17/17
f 28/11/27 26/10/26 39/23/25 40/24/28
f 31/25/29 27/14/30 28/11/27 40/24/28
f 32/26/31 31/25/29 40/24/28 41/27/32
f 35/20/22 32/26/31 41/27/32 37/21/23
s 5
f 1/28/33 2/29/34 18/2/35 17/1/36
f 3/30/37 4/31/38 24/7/39 23/6/40
f 5/32/41 1/28/33 17/1/36 25/9/42
f 6/33/43 5/32/41 25/9/42 29/12/44
f 7/34/45 6/33/43 29/12/44 30/16/46
f 4/31/38 7/34/45 30/16/46 24/7/39
s 7
f 9/35/47 8/36/48 33/17/49 34/18/50
f 10/37/51 11/38/52 38/22/53 37/21/54
f 8/36/48 12/39/55 39/23/56 33/17/49
f 12/39/55 13/40/57 40/24/58 39/23/56
f 13/40/57 14/41/59 41/27/60 40/24/58
f 14/41/59 10/37/51 37/21/54 41/27/60
s 9
f 56/42/61 57/43/62 58/44/63 59/45/64
f 36/19/65 60/46/66 61/47/67 35/20/68
f 62/48/69 56/42/61 59/45/64 63/49/70
f 64/50/71 65/51/72 62/48/69 63/49/70
f 31/25/73 65/51/72 64/50/71 27/14/74
f 32/26/75 66/52/76 65/51/72 31/25/73
f 35/20/68 61/47/67 66/52/76 32/26/75
s 11
f 67/53/77 59/45/78 58/44/79 68/54/80
f 21/5/81 22/8/82 69/55/83 70/56/84
f 71/57/85 63/49/86 59/45/78 67/53/77
f 64/50/87 63/49/86 71/57/85 72/58/88
f 16/13/89 27/14/90 64/50/87 72/58/88
f 15/15/91 16/13/89 72/58/88 73/59/92
f 22/8/82 15/15/91 73/59/92 69/55/83
s 13
f 42/60/93 43/61/94 57/43/95 56/42/96
f 44/62/97 45/63/98 61/47/99 60/46/100
f 46/64/101 42/60/93 56/42/96 62/48/102
f 47/65/103 46/64/101 62/48/102 65/51/104
f 48/66/105 47/65/103 65/51/104 66/52/106
f 45/63/98 48/66/105 66/52/106 61/47/99
s 15
f 50/67/107 49/68/108 67/53/109 68/54/110
f 51/69/111 52/70/112 70/56/113 69/55/114
f 49/68/108 53/71/115 71/57/116 67/53/109
f 53/71/115 54/72/117 72/58/118 71/57/116
f 54/72/117 55/73/119 73/59/120 72/58/118
f 55/73/119 51/69/111 69/55/114 73/59/120
