# This file uses centimeters as units for non-parametric coordinates.

mtllib Floor_StraightHalfPanels.mtl
v -100.000000 2.094800 59.911824
v 100.000061 2.094800 59.911824
v -100.000000 2.094800 44.827473
v 100.000061 2.094800 44.827473
v -100.000000 2.094800 -0.665263
v 100.000061 2.094800 -0.665263
v 92.860840 0.328869 59.911824
v 92.860840 0.328869 44.827473
v 92.860840 0.328869 -0.665263
v -92.860718 0.328869 59.911824
v -92.860718 0.328869 44.827473
v -92.860718 0.328869 -0.665263
v 68.185364 -1.315638 59.911824
v 68.185364 -1.315638 44.827473
v 68.185364 -1.315638 -0.665263
v -68.185303 -1.315638 59.911824
v -68.185303 -1.315638 44.827473
v -68.185303 -1.315638 -0.665263
v 69.007568 0.328869 59.911824
v 68.692871 0.266285 59.911824
v 68.426208 0.088060 59.911824
v 68.247986 -0.178671 59.911824
v 68.185364 -0.493302 59.911824
v 69.007568 0.328869 44.827473
v 68.692871 0.266285 44.827473
v 68.426208 0.088060 44.827473
v 68.247986 -0.178671 44.827473
v 68.185364 -0.493302 44.827473
v 69.007568 0.328869 -0.665263
v 68.692871 0.266285 -0.665263
v 68.426208 0.088060 -0.665263
v 68.247986 -0.178671 -0.665263
v 68.185364 -0.493302 -0.665263
v -68.185303 -0.493302 59.911824
v -68.247925 -0.178671 59.911824
v -68.426147 0.088060 59.911824
v -68.692871 0.266285 59.911824
v -69.007507 0.328869 59.911824
v -69.007507 0.328869 44.827473
v -68.692871 0.266285 44.827473
v -68.426147 0.088060 44.827473
v -68.247925 -0.178671 44.827473
v -68.185303 -0.493302 44.827473
v -69.007507 0.328869 -0.665263
v -68.692871 0.266285 -0.665263
v -68.426147 0.088060 -0.665263
v -68.247925 -0.178671 -0.665263
v -68.185303 -0.493302 -0.665263
v -68.283447 -1.315643 59.911824
v 68.283508 -1.315643 59.911824
v -68.283447 -1.315643 -0.088115
v 68.283508 -1.315643 -0.088115
v -67.617310 0.328869 59.911824
v -67.950378 0.240749 59.911824
v -68.194214 0.000000 59.911824
v -68.283447 -0.328870 59.911824
v -68.283447 -0.328870 -0.088115
v -68.194214 0.000000 0.000020
v -67.950378 0.240749 0.240864
v -67.617310 0.328869 0.569722
v 68.283508 -0.328870 59.911824
v 68.194275 0.000000 59.911824
v 67.950500 0.240749 59.911824
v 67.617432 0.328869 59.911824
v 67.617432 0.328869 0.569722
v 67.950500 0.240749 0.240864
v 68.194275 0.000000 0.000020
v 68.283508 -0.328870 -0.088115
v 0.000000 -1.315643 -0.088115
v 0.000000 -0.328870 -0.088115
v 0.000061 0.000000 0.000020
v 0.000000 0.240749 0.240864
v 0.000000 0.328869 0.569722
v 0.000000 0.328869 59.911824
vt 0.069508 0.023055
vt 0.077724 0.023055
vt 0.077724 0.038967
vt 0.069508 0.038967
vt 0.077724 0.086956
vt 0.069508 0.086956
vt 0.051448 0.038967
vt 0.051448 0.023055
vt 0.059664 0.023055
vt 0.059664 0.038967
vt 0.051448 0.086956
vt 0.059664 0.086956
vt 0.105177 0.023055
vt 0.105539 0.023055
vt 0.105539 0.038967
vt 0.105177 0.038967
vt 0.105846 0.023055
vt 0.105846 0.038967
vt 0.106051 0.023055
vt 0.106051 0.038967
vt 0.106123 0.023055
vt 0.106123 0.038967
vt 0.105177 0.086956
vt 0.023995 0.038967
vt 0.023995 0.023055
vt 0.023995 0.086956
vt 0.023049 0.023055
vt 0.023049 0.038967
vt 0.023049 0.038967
vt 0.023049 0.023055
vt 0.023049 0.086956
vt 0.023049 0.086956
vt 0.106123 0.023055
vt 0.106123 0.038967
vt 0.106123 0.086956
vt 0.106123 0.086956
vt 0.023121 0.023055
vt 0.023121 0.038967
vt 0.023326 0.023055
vt 0.023326 0.038967
vt 0.023633 0.023055
vt 0.023633 0.038967
vt 0.023121 0.086956
vt 0.023326 0.086956
vt 0.023633 0.086956
vt 0.106051 0.086956
vt 0.105846 0.086956
vt 0.105539 0.086956
vt 0.819903 0.603484
vt 0.820005 0.603484
vt 0.820005 0.666536
vt 0.819903 0.666629
vt 0.820285 0.603484
vt 0.820285 0.666283
vt 0.820667 0.603484
vt 0.820667 0.665936
vt 0.975945 0.603484
vt 0.976327 0.603484
vt 0.976327 0.666283
vt 0.975945 0.665936
vt 0.976607 0.603484
vt 0.976607 0.666536
vt 0.976710 0.603484
vt 0.976710 0.666629
vt 0.819903 0.666629
vt 0.819903 0.603484
vt 0.898306 0.665936
vt 0.898306 0.603484
vt 0.976710 0.603484
vt 0.976710 0.666629
vt 0.898306 0.666629
vt 0.898306 0.666629
vt 0.898306 0.666536
vt 0.898306 0.666283
vn 0.240117 0.970744 0.000000
vn 0.240117 0.970744 0.000000
vn 0.240117 0.970744 0.000000
vn 0.240117 0.970744 0.000000
vn 0.240118 0.970744 0.000000
vn 0.240118 0.970744 0.000000
vn -0.240119 0.970743 0.000000
vn -0.240119 0.970744 0.000000
vn -0.240119 0.970744 0.000000
vn -0.240119 0.970743 0.000000
vn -0.240119 0.970743 0.000000
vn -0.240119 0.970743 0.000000
vn 0.002590 0.999997 0.000000
vn 0.382682 0.923880 0.000000
vn 0.382688 0.923878 0.000000
vn 0.002590 0.999997 0.000000
vn 0.707104 0.707109 0.000000
vn 0.707107 0.707106 0.000000
vn 0.923865 0.382717 0.000000
vn 0.923858 0.382737 0.000000
vn 0.998488 0.054979 0.000000
vn 0.998487 0.054988 0.000000
vn 0.000000 1.000000 0.000000
vn 0.000000 1.000000 0.000000
vn 0.000000 1.000000 0.000000
vn 0.002590 0.999997 0.000000
vn -0.002590 0.999997 0.000000
vn -0.002590 0.999997 0.000000
vn 0.000000 1.000000 0.000000
vn 0.000000 1.000000 0.000000
vn -0.002590 0.999997 0.000000
vn 0.000000 1.000000 0.000000
vn -0.998487 0.054993 0.000000
vn -0.998486 0.054998 0.000000
vn -1.000000 0.000000 0.000000
vn -1.000000 0.000000 0.000000
vn -0.998486 0.055000 0.000000
vn -1.000000 0.000000 0.000000
vn 1.000000 0.000000 0.000000
vn 1.000000 0.000000 0.000000
vn 0.998487 0.054991 0.000000
vn 1.000000 0.000000 0.000000
vn -0.923856 0.382739 0.000000
vn -0.923855 0.382742 0.000000
vn -0.707156 0.707058 0.000000
vn -0.707165 0.707049 0.000000
vn -0.382691 0.923877 0.000000
vn -0.382686 0.923879 0.000000
vn -0.923855 0.382743 0.000000
vn -0.707168 0.707046 0.000000
vn -0.382684 0.923879 0.000000
vn 0.923855 0.382743 0.000000
vn 0.707108 0.707105 0.000000
vn 0.382690 0.923877 0.000000
vn -0.997711 0.067627 0.000000
vn -0.965110 0.261844 0.000000
vn -0.965110 0.261844 0.000000
vn -0.998250 0.059142 0.000000
vn -0.702568 0.711617 0.000000
vn -0.495793 0.868441 0.000000
vn -0.309990 0.882555 -0.353557
vn -0.702568 0.711617 0.000000
vn -0.001300 0.999999 0.000000
vn -0.001911 0.999996 -0.002188
vn 0.001300 0.999999 0.000000
vn 0.495822 0.868424 0.000000
vn 0.310020 0.882542 -0.353565
vn 0.001911 0.999996 -0.002188
vn 0.702663 0.711522 0.000000
vn 0.702663 0.711523 0.000000
vn 0.965110 0.261844 0.000000
vn 0.997711 0.067627 0.000000
vn 0.998250 0.059142 0.000000
vn 0.965110 0.261844 0.000000
vn -1.000000 0.000000 0.000000
vn -1.000000 0.000000 0.000000
vn 0.000000 0.999999 -0.001480
vn 0.000000 1.000000 0.000000
vn 1.000000 0.000000 0.000000
vn 1.000000 0.000000 0.000000
vn 0.000000 0.000000 -1.000000
vn 0.000000 0.066807 -0.997766
vn 0.000000 0.058313 -0.998298
vn 0.000000 0.000000 -1.000000
vn 0.000000 0.258858 -0.965915
vn 0.000000 0.258858 -0.965915
vn 0.000000 0.707248 -0.706965
vn 0.000000 0.865773 -0.500437
vn 0.000000 0.707248 -0.706965
vn 0.000000 0.000000 -1.000000
vn 0.000000 0.058313 -0.998298
vn 0.000000 0.258858 -0.965915
vn 0.000000 0.707248 -0.706965
s 1
usemtl lambert3SG
f 1/1/1 10/2/2 11/3/3 3/4/4
f 3/4/4 11/3/3 12/5/5 5/6/6
s 2
f 8/7/7 7/8/8 2/9/9 4/10/10
f 9/11/11 8/7/7 4/10/10 6/12/12
s 3
f 38/13/13 37/14/14 40/15/15 39/16/16
f 37/14/14 36/17/17 41/18/18 40/15/15
f 36/17/17 35/19/19 42/20/20 41/18/18
f 35/19/19 34/21/21 43/22/22 42/20/20
f 11/3/23 10/2/24 38/13/13 39/16/16
f 12/5/25 11/3/23 39/16/16 44/23/26
s 4
f 24/24/27 19/25/28 7/8/29 8/7/30
f 29/26/31 24/24/27 8/7/30 9/11/32
f 23/27/33 28/28/34 14/29/35 13/30/36
f 28/28/34 33/31/37 15/32/38 14/29/35
s 3
f 43/22/22 34/21/21 16/33/39 17/34/40
f 48/35/41 43/22/22 17/34/40 18/36/42
s 4
f 23/27/33 22/37/43 27/38/44 28/28/34
f 22/37/43 21/39/45 26/40/46 27/38/44
f 21/39/45 20/41/47 25/42/48 26/40/46
f 20/41/47 19/25/28 24/24/27 25/42/48
f 28/28/34 27/38/44 32/43/49 33/31/37
f 27/38/44 26/40/46 31/44/50 32/43/49
f 26/40/46 25/42/48 30/45/51 31/44/50
f 25/42/48 24/24/27 29/26/31 30/45/51
s 3
f 42/20/20 43/22/22 48/35/41 47/46/52
f 41/18/18 42/20/20 47/46/52 46/47/53
f 39/16/16 40/15/15 45/48/54 44/23/26
f 40/15/15 41/18/18 46/47/53 45/48/54
s 6
f 56/49/55 55/50/56 58/51/57 57/52/58
s 7
f 55/50/59 54/53/60 59/54/61 58/51/62
f 54/53/60 53/55/63 60/56/64 59/54/61
f 64/57/65 63/58/66 66/59/67 65/60/68
f 63/58/66 62/61/69 67/62/70 66/59/67
s 9
f 62/61/71 61/63/72 68/64/73 67/62/74
s 6
f 57/52/58 51/65/75 49/66/76 56/49/55
s 7
f 65/60/68 73/67/77 74/68/78 64/57/65
s 9
f 50/69/79 52/70/80 68/64/73 61/63/72
s 10
f 69/71/81 70/72/82 68/64/83 52/70/84
f 70/72/82 71/73/85 67/62/86 68/64/83
s 7
f 71/73/87 72/74/88 66/59/67 67/62/89
f 72/74/88 73/67/77 65/60/68 66/59/67
s 10
f 51/65/90 57/52/91 70/72/82 69/71/81
f 57/52/91 58/51/92 71/73/85 70/72/82
s 7
f 58/51/93 59/54/61 72/74/88 71/73/87
f 59/54/61 60/56/64 73/67/77 72/74/88
f 74/68/78 73/67/77 60/56/64 53/55/63
