# This file uses centimeters as units for non-parametric coordinates.

mtllib Floor_StraightPanels.mtl
v -99.999939 1.765931 240.000081
v 100.000061 1.765931 240.000081
v -99.999939 1.765931 -0.000041
v 100.000061 1.765931 -0.000041
v -99.999939 1.765931 119.999959
v 100.000061 1.765931 120.000081
v -99.999939 1.765931 15.084309
v 100.000061 1.765931 15.084309
v -99.999939 1.765931 224.915608
v 100.000061 1.765931 224.915608
v -99.999939 1.765931 179.422932
v 100.000061 1.765931 179.422932
v -99.999939 1.765931 60.577107
v 100.000061 1.765931 60.577107
v 92.860840 0.000000 240.000081
v 92.860840 0.000000 224.915608
v 92.860840 0.000000 179.422932
v 92.860840 0.000000 120.000081
v 92.860840 0.000000 60.577107
v 92.860840 0.000000 15.084309
v 92.860840 0.000000 -0.000041
v -92.860718 0.000000 240.000081
v -92.860718 0.000000 224.915608
v -92.860718 0.000000 179.422932
v -92.860718 0.000000 119.999959
v -92.860718 0.000000 60.577107
v -92.860718 0.000000 15.084309
v -92.860718 0.000000 -0.000041
v 69.007568 0.000000 240.000081
v 68.692932 -0.062584 240.000081
v 68.426208 -0.240808 240.000081
v 68.247986 -0.507540 240.000081
v 68.185425 -0.822171 240.000081
v 69.007568 0.000000 224.915608
v 68.692932 -0.062584 224.915608
v 68.426208 -0.240808 224.915608
v 68.247986 -0.507540 224.915608
v 68.185425 -0.822171 224.915608
v 69.007568 0.000000 179.422932
v 68.692932 -0.062584 179.422932
v 68.426208 -0.240808 179.422932
v 68.247986 -0.507540 179.422932
v 68.185425 -0.822171 179.422932
v 69.007568 0.000000 120.000081
v 68.692932 -0.062584 120.000081
v 68.426208 -0.240808 120.000081
v 68.247986 -0.507540 120.000081
v 68.185425 -0.822171 120.000081
v 69.007568 0.000000 60.577107
v 68.692932 -0.062584 60.577107
v 68.426208 -0.240808 60.577107
v 68.247986 -0.507540 60.577107
v 68.185425 -0.822171 60.577107
v 69.007568 0.000000 15.084309
v 68.692932 -0.062584 15.084309
v 68.426208 -0.240808 15.084309
v 68.247986 -0.507540 15.084309
v 68.185425 -0.822171 15.084309
v 68.185425 -0.822171 -0.000041
v 68.247986 -0.507540 -0.000041
v 68.426208 -0.240808 -0.000041
v 68.692932 -0.062584 -0.000041
v 69.007568 0.000000 -0.000041
v -68.185242 -0.822171 239.999959
v -68.247864 -0.507540 239.999959
v -68.426086 -0.240808 239.999959
v -68.692810 -0.062584 239.999959
v -69.007446 0.000000 239.999959
v -69.007446 0.000000 224.915608
v -68.692810 -0.062584 224.915608
v -68.426086 -0.240808 224.915608
v -68.247864 -0.507540 224.915608
v -68.185242 -0.822171 224.915608
v -69.007446 0.000000 179.422932
v -68.692810 -0.062584 179.422932
v -68.426086 -0.240808 179.422932
v -68.247864 -0.507540 179.422932
v -68.185242 -0.822171 179.422932
v -69.007446 0.000000 119.999959
v -68.692810 -0.062584 119.999959
v -68.426086 -0.240808 119.999959
v -68.247864 -0.507540 119.999959
v -68.185242 -0.822171 119.999959
v -69.007446 0.000000 60.577107
v -68.692810 -0.062584 60.577107
v -68.426086 -0.240808 60.577107
v -68.247864 -0.507540 60.577107
v -68.185242 -0.822171 60.577107
v -69.007446 0.000000 15.084309
v -68.692810 -0.062584 15.084309
v -68.426086 -0.240808 15.084309
v -68.247864 -0.507540 15.084309
v -68.185242 -0.822171 15.084309
v -69.007446 0.000000 -0.000041
v -68.692810 -0.062584 -0.000041
v -68.426086 -0.240808 -0.000041
v -68.247864 -0.507540 -0.000041
v -68.185242 -0.822171 -0.000041
v -68.194153 -0.328869 -0.000041
v -67.950317 -0.088120 -0.000041
v -67.617249 0.000000 -0.000041
v -68.283386 -0.657739 -0.000041
v -67.617249 0.000000 59.342244
v -67.950317 -0.088120 59.671101
v -68.194153 -0.328869 59.911946
v -68.283386 -0.657739 59.999959
v 67.950500 -0.088120 -0.000041
v 68.194336 -0.328869 -0.000041
v 68.283569 -0.657739 -0.000041
v 67.617432 0.000000 -0.000041
v 67.617432 0.000000 59.342244
v 67.950500 -0.088120 59.671101
v 68.194336 -0.328869 59.911946
v 68.283569 -0.657739 59.999959
v 0.000061 -0.657739 59.999959
v 0.000061 -0.328869 59.911946
v 0.000061 -0.088120 59.671101
v 0.000061 0.000000 59.342244
v 0.000061 0.000000 -0.000041
v -67.617249 0.000000 240.000081
v -67.950317 -0.088120 240.000081
v -68.194153 -0.328869 240.000081
v -68.283386 -0.657739 240.000081
v -68.283386 -0.657739 180.000081
v -68.194153 -0.328869 180.088093
v -67.950317 -0.088120 180.328938
v -67.617249 0.000000 180.657796
v 68.283569 -0.657739 240.000081
v 68.194336 -0.328869 240.000081
v 67.950500 -0.088120 240.000081
v 67.617432 0.000000 240.000081
v 67.617432 0.000000 180.657796
v 67.950500 -0.088120 180.328938
v 68.194336 -0.328869 180.088093
v 68.283569 -0.657739 180.000081
v 0.000061 -0.657739 180.000081
v 0.000061 -0.328869 180.088093
v 0.000061 -0.088120 180.328938
v 0.000061 0.000000 180.657796
v 0.000061 0.000000 240.000081
v -67.617249 0.000000 60.657796
v -67.950317 -0.088120 60.328938
v -68.194153 -0.328869 60.088093
v -68.283386 -0.657739 59.999959
v 68.283569 -0.657739 59.999959
v 68.194336 -0.328869 60.088093
v 67.950500 -0.088120 60.328938
v 67.617432 0.000000 60.657796
v -67.617249 0.000000 179.342244
v -67.950317 -0.088120 179.671101
v -68.194153 -0.328869 179.911946
v -68.283386 -0.657739 180.000081
v 67.617432 0.000000 179.342244
v 67.950500 -0.088120 179.671101
v 68.194336 -0.328869 179.911946
v 68.283569 -0.657739 180.000081
v 0.000061 -0.657739 180.000081
v 0.000061 -0.328869 179.911946
v 0.000061 -0.088120 179.671101
v 0.000061 0.000000 179.342244
v 0.000061 0.000000 60.657796
v 0.000061 -0.088120 60.328938
v 0.000061 -0.328869 60.088093
v 0.000061 -0.657739 59.999959
v 68.283569 -0.657739 120.000081
v 68.194336 -0.328869 120.000081
v 67.950500 -0.088120 120.000081
v 67.617432 0.000000 120.000081
v 0.000061 0.000000 120.000081
v -67.617249 0.000000 120.000081
v -67.950317 -0.088120 120.000081
v -68.194153 -0.328869 120.000081
v -68.283386 -0.657739 120.000081
vt 0.928110 0.487185
vt 0.935903 0.487185
vt 0.935903 0.503547
vt 0.928110 0.503547
vt 0.928110 0.308925
vt 0.935903 0.308925
vt 0.935903 0.373381
vt 0.928110 0.373381
vt 0.928110 0.437838
vt 0.935903 0.437838
vt 0.928110 0.243216
vt 0.935903 0.243216
vt 0.935903 0.259578
vt 0.928110 0.259578
vt 0.922701 0.692400
vt 0.922701 0.676038
vt 0.930494 0.676038
vt 0.930494 0.692400
vt 0.922701 0.741747
vt 0.930494 0.741747
vt 0.922701 0.806204
vt 0.930494 0.806204
vt 0.922701 0.870661
vt 0.930494 0.870661
vt 0.922701 0.920007
vt 0.930494 0.920007
vt 0.922701 0.936369
vt 0.930494 0.936369
vt 0.895765 0.920007
vt 0.895834 0.920007
vt 0.895834 0.936369
vt 0.895765 0.936369
vt 0.896028 0.920007
vt 0.896028 0.936369
vt 0.896319 0.920007
vt 0.896319 0.936369
vt 0.896663 0.920007
vt 0.896663 0.936369
vt 0.961941 0.243216
vt 0.962284 0.243216
vt 0.962284 0.259578
vt 0.961941 0.259578
vt 0.962576 0.243216
vt 0.962576 0.259578
vt 0.962770 0.243216
vt 0.962770 0.259578
vt 0.962839 0.243216
vt 0.962839 0.259578
vt 0.961941 0.308925
vt 0.961941 0.373381
vt 0.961941 0.437838
vt 0.961941 0.487185
vt 0.961941 0.503547
vt 0.896663 0.692400
vt 0.896663 0.676038
vt 0.896663 0.741747
vt 0.896663 0.806204
vt 0.896663 0.870661
vt 0.895765 0.676038
vt 0.895765 0.692400
vt 0.895765 0.741747
vt 0.895765 0.806204
vt 0.895765 0.870661
vt 0.962839 0.308925
vt 0.962839 0.373381
vt 0.962839 0.437838
vt 0.962839 0.487185
vt 0.962839 0.503547
vt 0.895834 0.676038
vt 0.895834 0.692400
vt 0.896028 0.676038
vt 0.896028 0.692400
vt 0.896319 0.676038
vt 0.896319 0.692400
vt 0.895834 0.741747
vt 0.896028 0.741747
vt 0.896319 0.741747
vt 0.895834 0.806204
vt 0.896028 0.806204
vt 0.896319 0.806204
vt 0.895834 0.870661
vt 0.896028 0.870661
vt 0.896319 0.870661
vt 0.962770 0.308925
vt 0.962576 0.308925
vt 0.962284 0.308925
vt 0.962770 0.373381
vt 0.962576 0.373381
vt 0.962284 0.373381
vt 0.962770 0.437838
vt 0.962576 0.437838
vt 0.962284 0.437838
vt 0.962770 0.487185
vt 0.962576 0.487185
vt 0.962284 0.487185
vt 0.962770 0.503547
vt 0.962576 0.503547
vt 0.962284 0.503547
vt 0.738294 0.861280
vt 0.737933 0.861280
vt 0.737933 0.796869
vt 0.738294 0.797224
vt 0.737668 0.861280
vt 0.737668 0.796609
vt 0.737571 0.861280
vt 0.737571 0.796514
vt 0.811746 0.797224
vt 0.811746 0.861280
vt 0.885921 0.796514
vt 0.885921 0.861280
vt 0.811746 0.796514
vt 0.811746 0.796609
vt 0.811746 0.796869
vt 0.885824 0.861280
vt 0.885824 0.796609
vt 0.885559 0.861280
vt 0.885559 0.796869
vt 0.885197 0.861280
vt 0.885197 0.797224
vt 0.515275 0.796514
vt 0.515372 0.796514
vt 0.515372 0.861185
vt 0.515275 0.861280
vt 0.515637 0.796514
vt 0.515637 0.860925
vt 0.515999 0.796514
vt 0.515999 0.860570
vt 0.662902 0.796514
vt 0.663264 0.796514
vt 0.663264 0.860925
vt 0.662902 0.860570
vt 0.663529 0.796514
vt 0.663529 0.861185
vt 0.663625 0.796514
vt 0.663625 0.861280
vt 0.589450 0.860570
vt 0.589450 0.796514
vt 0.589450 0.861280
vt 0.589450 0.861185
vt 0.589450 0.860925
vt 0.421182 0.502106
vt 0.421279 0.502011
vt 0.495357 0.502011
vt 0.495357 0.502106
vt 0.421544 0.501751
vt 0.495357 0.501751
vt 0.421905 0.501396
vt 0.495357 0.501396
vt 0.495357 0.373284
vt 0.495357 0.437340
vt 0.421905 0.437340
vt 0.421905 0.373284
vt 0.421182 0.437340
vt 0.421182 0.372574
vt 0.569532 0.437340
vt 0.569532 0.372574
vt 0.495357 0.372574
vt 0.421279 0.437340
vt 0.421279 0.372669
vt 0.421544 0.437340
vt 0.421544 0.372929
vt 0.495357 0.372669
vt 0.495357 0.372929
vt 0.569435 0.437340
vt 0.569435 0.372669
vt 0.569170 0.437340
vt 0.569170 0.372929
vt 0.568808 0.437340
vt 0.568808 0.373284
vt 0.568808 0.501396
vt 0.569170 0.501751
vt 0.569435 0.502011
vt 0.569532 0.502106
vn 0.240119 0.970743 0.000000
vn 0.240119 0.970743 0.000000
vn 0.240119 0.970744 0.000000
vn 0.240119 0.970744 0.000000
vn 0.240119 0.970743 0.000000
vn 0.240119 0.970743 0.000000
vn 0.240119 0.970744 0.000000
vn 0.240119 0.970744 0.000000
vn 0.240119 0.970743 0.000000
vn 0.240119 0.970743 0.000000
vn 0.240120 0.970743 0.000000
vn 0.240120 0.970743 0.000000
vn 0.240120 0.970743 0.000000
vn 0.240120 0.970743 0.000000
vn -0.240119 0.970743 0.000000
vn -0.240120 0.970743 0.000000
vn -0.240120 0.970743 0.000000
vn -0.240119 0.970743 0.000000
vn -0.240119 0.970743 0.000000
vn -0.240119 0.970743 0.000000
vn -0.240119 0.970743 0.000000
vn -0.240119 0.970743 0.000000
vn -0.240119 0.970743 0.000000
vn -0.240119 0.970743 0.000000
vn -0.240120 0.970743 0.000000
vn -0.240120 0.970743 0.000000
vn -0.240120 0.970743 0.000000
vn -0.240120 0.970743 0.000000
vn -0.980804 0.194998 0.000000
vn -0.923896 0.382644 0.000000
vn -0.923893 0.382650 0.000000
vn -0.980803 0.195003 0.000000
vn -0.707111 0.707103 0.000000
vn -0.707117 0.707096 0.000000
vn -0.382686 0.923878 0.000000
vn -0.382690 0.923877 0.000000
vn -0.002590 0.999997 0.000000
vn -0.002590 0.999997 0.000000
vn 0.002590 0.999997 0.000000
vn 0.382682 0.923880 0.000000
vn 0.382688 0.923878 0.000000
vn 0.002590 0.999997 0.000000
vn 0.707130 0.707083 0.000000
vn 0.707113 0.707101 0.000000
vn 0.923865 0.382718 0.000000
vn 0.923857 0.382737 0.000000
vn 0.980754 0.195247 0.000000
vn 0.980763 0.195204 0.000000
vn 0.000000 1.000000 0.000000
vn 0.000000 1.000000 0.000000
vn 0.000000 1.000000 0.000000
vn 0.002590 0.999997 0.000000
vn 0.000000 1.000000 0.000000
vn 0.002590 0.999997 0.000000
vn 0.000000 1.000000 0.000000
vn 0.002590 0.999997 0.000000
vn 0.000000 1.000000 0.000000
vn 0.002590 0.999997 0.000000
vn 0.000000 1.000000 0.000000
vn 0.002590 0.999997 0.000000
vn -0.002590 0.999997 0.000000
vn -0.002590 0.999997 0.000000
vn 0.000000 1.000000 0.000000
vn 0.000000 1.000000 0.000000
vn -0.002590 0.999997 0.000000
vn 0.000000 1.000000 0.000000
vn -0.002590 0.999997 0.000000
vn 0.000000 1.000000 0.000000
vn -0.002590 0.999997 0.000000
vn 0.000000 1.000000 0.000000
vn 0.000000 1.000000 0.000000
vn 0.000000 1.000000 0.000000
vn -0.980803 0.195003 0.000000
vn -0.923894 0.382649 0.000000
vn -0.923896 0.382643 0.000000
vn -0.980804 0.194998 0.000000
vn -0.707120 0.707093 0.000000
vn -0.707111 0.707103 0.000000
vn -0.382685 0.923879 0.000000
vn -0.382684 0.923879 0.000000
vn -0.923897 0.382641 0.000000
vn -0.980800 0.195017 0.000000
vn -0.707115 0.707098 0.000000
vn -0.382685 0.923879 0.000000
vn -0.923893 0.382651 0.000000
vn -0.980797 0.195032 0.000000
vn -0.707115 0.707098 0.000000
vn -0.382687 0.923878 0.000000
vn -0.923892 0.382653 0.000000
vn -0.980800 0.195017 0.000000
vn -0.707109 0.707105 0.000000
vn -0.382686 0.923878 0.000000
vn 0.980767 0.195184 0.000000
vn 0.923863 0.382722 0.000000
vn 0.707116 0.707098 0.000000
vn 0.382683 0.923880 0.000000
vn 0.980758 0.195229 0.000000
vn 0.923861 0.382729 0.000000
vn 0.707122 0.707092 0.000000
vn 0.382678 0.923882 0.000000
vn 0.980756 0.195240 0.000000
vn 0.923858 0.382735 0.000000
vn 0.707123 0.707090 0.000000
vn 0.382678 0.923882 0.000000
vn 0.980763 0.195204 0.000000
vn 0.923867 0.382715 0.000000
vn 0.707127 0.707087 0.000000
vn 0.382679 0.923881 0.000000
vn 0.980754 0.195245 0.000000
vn 0.923866 0.382716 0.000000
vn 0.707130 0.707083 0.000000
vn 0.382681 0.923881 0.000000
vn -0.001300 0.999999 0.000000
vn -0.495794 0.868440 0.000000
vn -0.309997 0.882550 0.353564
vn -0.001911 0.999996 0.002188
vn -0.702617 0.711568 0.000000
vn -0.702617 0.711568 0.000000
vn -0.965086 0.261933 0.000000
vn -0.965086 0.261933 0.000000
vn -0.965086 0.261933 0.000000
vn -0.965086 0.261933 0.000000
vn 0.000000 0.999999 0.001480
vn 0.000000 1.000000 0.000000
vn 0.000000 0.258524 0.966005
vn 0.000000 0.258524 0.966005
vn 0.000000 0.258524 0.966005
vn 0.000000 0.258524 0.966005
vn 0.000000 0.865773 0.500437
vn 0.000000 0.707248 0.706965
vn 0.000000 0.707248 0.706965
vn 0.965098 0.261888 0.000000
vn 0.965098 0.261888 0.000000
vn 0.965098 0.261888 0.000000
vn 0.965098 0.261888 0.000000
vn 0.702593 0.711592 0.000000
vn 0.495791 0.868442 0.000000
vn 0.309995 0.882552 0.353560
vn 0.702593 0.711592 0.000000
vn 0.001300 0.999999 0.000000
vn 0.001911 0.999996 0.002188
vn 0.000000 0.258524 0.966005
vn 0.000000 0.258524 0.966005
vn 0.000000 0.707248 0.706965
vn -0.965086 0.261933 0.000000
vn -0.965086 0.261933 0.000000
vn -0.965086 0.261933 0.000000
vn -0.965086 0.261933 0.000000
vn -0.702616 0.711569 0.000000
vn -0.495794 0.868440 0.000000
vn -0.309997 0.882550 -0.353564
vn -0.702616 0.711569 0.000000
vn -0.001300 0.999999 0.000000
vn -0.001911 0.999996 -0.002188
vn 0.001300 0.999999 0.000000
vn 0.495791 0.868442 0.000000
vn 0.309994 0.882553 -0.353560
vn 0.001911 0.999996 -0.002188
vn 0.702593 0.711592 0.000000
vn 0.702593 0.711592 0.000000
vn 0.965098 0.261888 0.000000
vn 0.965098 0.261888 0.000000
vn 0.965098 0.261888 0.000000
vn 0.965098 0.261888 0.000000
vn 0.000000 0.999999 -0.001480
vn 0.000000 1.000000 0.000000
vn 0.000000 0.258524 -0.966005
vn 0.000000 0.258524 -0.966005
vn 0.000000 0.258524 -0.966005
vn 0.000000 0.258524 -0.966005
vn 0.000000 0.707248 -0.706965
vn 0.000000 0.865773 -0.500437
vn 0.000000 0.707248 -0.706965
vn 0.000000 0.258524 -0.966005
vn 0.000000 0.258524 -0.966005
vn 0.000000 0.707248 -0.706965
vn 0.000000 0.258858 -0.965915
vn 0.000000 0.258858 -0.965915
vn 0.000000 0.258858 -0.965915
vn 0.000000 0.258858 -0.965915
vn 0.000000 0.707248 -0.706965
vn -0.310000 0.882549 -0.353564
vn 0.000000 0.865773 -0.500437
vn 0.000000 0.707248 -0.706965
vn -0.001911 0.999996 -0.002188
vn 0.000000 0.999999 -0.001480
vn 0.000000 0.999999 0.001480
vn 0.000000 1.000000 0.000000
vn -0.001300 0.999999 0.000000
vn -0.001911 0.999996 0.002188
vn -0.965110 0.261844 0.000000
vn -0.965110 0.261844 0.000000
vn -0.965110 0.261844 0.000000
vn -0.965110 0.261844 0.000000
vn -0.495797 0.868438 0.000000
vn -0.309991 0.882555 0.353557
vn -0.702593 0.711592 0.000000
vn -0.702569 0.711616 0.000000
vn 0.000000 0.258858 0.965915
vn 0.000000 0.258858 0.965915
vn 0.000000 0.258858 0.965915
vn 0.000000 0.258858 0.965915
vn 0.000000 0.865773 0.500437
vn 0.000000 0.707248 0.706965
vn 0.000000 0.707248 0.706965
vn 0.965104 0.261866 0.000000
vn 0.965104 0.261866 0.000000
vn 0.965098 0.261889 0.000000
vn 0.965098 0.261889 0.000000
vn 0.702593 0.711592 0.000000
vn 0.495791 0.868442 0.000000
vn 0.309994 0.882553 0.353560
vn 0.702593 0.711592 0.000000
vn 0.001300 0.999999 0.000000
vn 0.001911 0.999996 0.002188
vn 0.000000 0.258858 0.965915
vn 0.000000 0.258858 0.965915
vn 0.000000 0.707248 0.706965
vn 0.001911 0.999996 -0.002188
vn 0.309995 0.882553 -0.353559
vn 0.000000 0.707248 -0.706965
vn 0.000000 0.258858 -0.965915
vn 0.000000 0.258858 -0.965915
vn 0.965110 0.261844 0.000000
vn 0.965110 0.261844 0.000000
vn 0.702593 0.711592 0.000000
vn -0.702616 0.711569 0.000000
vn -0.965110 0.261844 0.000000
vn -0.965110 0.261844 0.000000
s 1
usemtl lambert3SG
f 7/1/1 27/2/2 28/3/3 3/4/4
f 11/5/5 24/6/6 25/7/7 5/8/8
f 13/9/9 26/10/10 27/2/2 7/1/1
f 1/11/11 22/12/12 23/13/13 9/14/14
f 9/14/14 23/13/13 24/6/6 11/5/5
f 5/8/8 25/7/7 26/10/10 13/9/9
s 3
f 16/15/15 15/16/16 2/17/17 10/18/18
f 17/19/19 16/15/15 10/18/18 12/20/20
f 18/21/21 17/19/19 12/20/20 6/22/22
f 19/23/23 18/21/21 6/22/22 14/24/24
f 20/25/25 19/23/23 14/24/24 8/26/26
f 21/27/27 20/25/25 8/26/26 4/28/28
s 4
f 58/29/29 57/30/30 60/31/31 59/32/32
f 57/30/30 56/33/33 61/34/34 60/31/31
f 56/33/33 55/35/35 62/36/36 61/34/34
f 55/35/35 54/37/37 63/38/38 62/36/36
s 5
f 68/39/39 67/40/40 70/41/41 69/42/42
f 67/40/40 66/43/43 71/44/44 70/41/41
f 66/43/43 65/45/45 72/46/46 71/44/44
f 65/45/45 64/47/47 73/48/48 72/46/46
f 23/13/49 22/12/50 68/39/39 69/42/42
f 24/6/51 23/13/49 69/42/42 74/49/52
f 25/7/53 24/6/51 74/49/52 79/50/54
f 26/10/55 25/7/53 79/50/54 84/51/56
f 27/2/57 26/10/55 84/51/56 89/52/58
f 28/3/59 27/2/57 89/52/58 94/53/60
s 4
f 34/54/61 29/55/62 15/16/63 16/15/64
f 39/56/65 34/54/61 16/15/64 17/19/66
f 44/57/67 39/56/65 17/19/66 18/21/68
f 49/58/69 44/57/67 18/21/68 19/23/70
f 54/37/37 49/58/69 19/23/70 20/25/71
f 63/38/38 54/37/37 20/25/71 21/27/72
f 33/59/73 32/69/74 37/70/75 38/60/76
f 32/69/74 31/71/77 36/72/78 37/70/75
f 31/71/77 30/73/79 35/74/80 36/72/78
f 30/73/79 29/55/62 34/54/61 35/74/80
f 38/60/76 37/70/75 42/75/81 43/61/82
f 37/70/75 36/72/78 41/76/83 42/75/81
f 36/72/78 35/74/80 40/77/84 41/76/83
f 35/74/80 34/54/61 39/56/65 40/77/84
f 43/61/82 42/75/81 47/78/85 48/62/86
f 42/75/81 41/76/83 46/79/87 47/78/85
f 41/76/83 40/77/84 45/80/88 46/79/87
f 40/77/84 39/56/65 44/57/67 45/80/88
f 48/62/86 47/78/85 52/81/89 53/63/90
f 47/78/85 46/79/87 51/82/91 52/81/89
f 46/79/87 45/80/88 50/83/92 51/82/91
f 45/80/88 44/57/67 49/58/69 50/83/92
f 53/63/90 52/81/89 57/30/30 58/29/29
f 52/81/89 51/82/91 56/33/33 57/30/30
f 51/82/91 50/83/92 55/35/35 56/33/33
f 50/83/92 49/58/69 54/37/37 55/35/35
s 5
f 72/46/46 73/48/48 78/64/93 77/84/94
f 71/44/44 72/46/46 77/84/94 76/85/95
f 69/42/42 70/41/41 75/86/96 74/49/52
f 70/41/41 71/44/44 76/85/95 75/86/96
f 77/84/94 78/64/93 83/65/97 82/87/98
f 76/85/95 77/84/94 82/87/98 81/88/99
f 74/49/52 75/86/96 80/89/100 79/50/54
f 75/86/96 76/85/95 81/88/99 80/89/100
f 82/87/98 83/65/97 88/66/101 87/90/102
f 81/88/99 82/87/98 87/90/102 86/91/103
f 79/50/54 80/89/100 85/92/104 84/51/56
f 80/89/100 81/88/99 86/91/103 85/92/104
f 87/90/102 88/66/101 93/67/105 92/93/106
f 86/91/103 87/90/102 92/93/106 91/94/107
f 84/51/56 85/92/104 90/95/108 89/52/58
f 85/92/104 86/91/103 91/94/107 90/95/108
f 92/93/106 93/67/105 98/68/109 97/96/110
f 91/94/107 92/93/106 97/96/110 96/97/111
f 89/52/58 90/95/108 95/98/112 94/53/60
f 90/95/108 91/94/107 96/97/111 95/98/112
s 8
f 101/99/113 100/100/114 104/101/115 103/102/116
f 100/100/114 99/103/117 105/104/118 104/101/115
s off
f 99/103/119 102/105/120 106/106/121 105/104/122
s 8
f 118/107/123 119/108/124 101/99/113 103/102/116
s 9
f 105/104/125 106/106/126 115/111/127 116/112/128
s 8
f 103/102/116 104/101/115 117/113/129 118/107/123
f 104/101/115 105/104/130 116/112/131 117/113/129
s off
f 109/110/132 108/114/133 113/115/134 114/109/135
s 8
f 108/114/136 107/116/137 112/117/138 113/115/139
f 107/116/137 110/118/140 111/119/141 112/117/138
s 9
f 116/112/128 115/111/127 114/109/142 113/115/143
s 8
f 117/113/129 116/112/131 113/115/144 112/117/138
f 118/107/123 117/113/129 112/117/138 111/119/141
f 111/119/141 110/118/140 119/108/124 118/107/123
s off
f 123/120/145 122/121/146 125/122/147 124/123/148
s 11
f 122/121/149 121/124/150 126/125/151 125/122/152
f 121/124/150 120/126/153 127/127/154 126/125/151
f 131/128/155 130/129/156 133/130/157 132/131/158
f 130/129/156 129/132/159 134/133/160 133/130/157
s off
f 129/132/161 128/134/162 135/135/163 134/133/164
s 11
f 132/131/158 139/136/165 140/137/166 131/128/155
s 13
f 136/138/167 137/139/168 134/133/169 135/135/170
s 11
f 137/139/171 138/140/172 133/130/157 134/133/173
f 138/140/172 139/136/165 132/131/158 133/130/157
s 13
f 124/123/174 125/122/175 137/139/168 136/138/167
s 11
f 125/122/176 126/125/151 138/140/172 137/139/171
f 126/125/151 127/127/154 139/136/165 138/140/172
f 140/137/166 139/136/165 127/127/154 120/126/153
s 15
f 144/141/177 143/142/178 163/143/179 164/144/180
s 16
f 143/142/181 142/145/182 162/146/183 163/143/184
f 142/145/182 141/147/185 161/148/186 162/146/183
f 160/149/187 169/150/188 170/151/189 149/152/190
s 18
f 172/158/191 173/153/192 152/154/193 151/159/194
s 16
f 170/151/189 171/160/195 150/161/196 149/152/190
f 171/160/195 172/158/197 151/159/198 150/161/196
s 19
f 151/159/199 152/154/200 157/157/201 158/162/202
s 16
f 149/152/190 150/161/196 159/163/203 160/149/187
f 150/161/196 151/159/204 158/162/205 159/163/203
s 20
f 165/155/206 166/164/207 155/165/208 156/156/209
s 16
f 166/164/210 167/166/211 154/167/212 155/165/213
f 167/166/211 168/168/214 153/169/215 154/167/212
s 19
f 158/162/202 157/157/201 156/156/216 155/165/217
s 16
f 159/163/203 158/162/205 155/165/218 154/167/212
f 160/149/187 159/163/203 154/167/212 153/169/215
f 168/168/214 169/150/188 160/149/187 153/169/215
f 162/146/183 161/148/186 148/170/219 147/171/220
f 163/143/184 162/146/183 147/171/220 146/172/221
s 15
f 164/144/180 163/143/179 146/172/222 145/173/223
s 20
f 145/173/224 146/172/225 166/164/207 165/155/206
s 16
f 146/172/226 147/171/220 167/166/211 166/164/210
f 147/171/220 148/170/219 168/168/214 167/166/211
f 148/170/219 161/148/186 169/150/188 168/168/214
f 170/151/189 169/150/188 161/148/186 141/147/185
f 141/147/185 142/145/182 171/160/195 170/151/189
f 142/145/182 143/142/227 172/158/197 171/160/195
s 18
f 143/142/228 144/141/229 173/153/192 172/158/191
