# This file uses centimeters as units for non-parametric coordinates.

mtllib Floor_TwoWay.mtl
v 108.690674 1.641059 314.705403
v 127.894653 1.641074 314.639851
v 100.000000 1.641059 60.017537
v 100.000000 1.641028 -0.003276
v 154.505493 1.641059 314.570515
v 214.382202 1.641059 314.570515
v 214.382202 1.641059 114.570637
v 154.956909 1.641059 114.570637
v 103.410034 1.641059 84.095418
v 0.000000 1.641059 314.705403
v 113.865662 1.641059 100.686116
v 130.475189 1.641059 111.160603
v -108.635681 1.641059 314.705403
v -128.346008 1.641074 314.639851
v -100.000000 1.641059 60.017537
v -100.000000 1.641028 -0.003276
v -154.505493 1.641059 314.570515
v -214.382202 1.641059 314.570515
v -154.956848 1.641059 114.570637
v -214.382202 1.641059 114.570637
v -103.409973 1.641059 84.095418
v -113.865662 1.641059 100.686116
v -130.475159 1.641059 111.160603
v 108.690674 0.000027 307.555379
v 127.870697 0.000043 307.489827
v 127.831787 0.000043 214.570515
v 108.690674 0.000012 214.570637
v 92.849976 0.000027 60.521321
v 92.850006 0.000001 0.000020
v 0.000000 0.000001 0.000020
v 0.000000 0.000027 60.419636
v 154.495300 0.000027 307.420491
v 214.423157 0.000027 307.420491
v 214.423157 0.000027 214.570515
v 154.505493 0.000027 214.570515
v 214.423157 0.000027 121.720662
v 154.461304 0.000027 121.720662
v 96.545227 0.000027 86.612996
v 0.000000 0.000043 86.507527
v 0.000000 0.000027 307.555379
v 0.000000 0.000027 214.570515
v 0.000000 0.000043 105.877278
v 108.680786 0.000025 105.869343
v 127.963684 0.000025 118.029744
v -108.621887 0.000027 307.555379
v -108.759460 0.000012 214.570637
v -128.283142 0.000043 214.570515
v -128.322083 0.000043 307.489827
v -92.850037 0.000027 60.521321
v -92.850037 0.000001 0.000020
v -154.495300 0.000027 307.420491
v -154.505493 0.000027 214.570515
v -214.000183 0.000027 214.570515
v -214.000183 0.000027 307.420491
v -154.461365 0.000027 121.720662
v -214.000183 0.000027 121.720662
v -96.545227 0.000029 86.612996
v -108.680847 0.000025 105.869343
v -127.963684 0.000025 118.029744
vt 0.850916 0.030584
vt 0.872064 0.030653
vt 0.872021 0.128502
vt 0.850916 0.128501
vt 0.833450 0.290723
vt 0.833450 0.354455
vt 0.731072 0.354455
vt 0.731072 0.290830
vt 0.901420 0.030726
vt 0.967497 0.030726
vt 0.967497 0.128502
vt 0.901432 0.128502
vt 0.967497 0.226277
vt 0.901383 0.226277
vt 0.837524 0.263247
vt 0.731072 0.263358
vt 0.731072 0.030584
vt 0.731072 0.128502
vt 0.731072 0.242961
vt 0.850905 0.242969
vt 0.872166 0.230164
vt 0.611305 0.030584
vt 0.611153 0.128501
vt 0.589626 0.128502
vt 0.589583 0.030653
vt 0.628695 0.290723
vt 0.628695 0.354455
vt 0.560724 0.030726
vt 0.560713 0.128502
vt 0.495113 0.128502
vt 0.495113 0.030726
vt 0.560762 0.226277
vt 0.495113 0.226277
vt 0.624621 0.263247
vt 0.611240 0.242969
vt 0.589978 0.230164
vt 0.850916 0.023055
vt 0.872090 0.023124
vt 0.841333 0.291253
vt 0.841333 0.354458
vt 0.901432 0.023197
vt 0.967452 0.023197
vt 0.967452 0.233806
vt 0.901929 0.233806
vt 0.845093 0.265898
vt 0.731072 0.023055
vt 0.856622 0.248427
vt 0.874936 0.237397
vt 0.589557 0.023124
vt 0.611289 0.023055
vt 0.620811 0.354458
vt 0.620811 0.291253
vt 0.494692 0.023197
vt 0.560713 0.023197
vt 0.560215 0.233806
vt 0.494692 0.233806
vt 0.617051 0.265898
vt 0.605523 0.248427
vt 0.587209 0.237397
vn -0.000000 1.000000 -0.000000
vn -0.000000 1.000000 -0.000000
vn -0.000000 1.000000 -0.000000
vn -0.000000 1.000000 0.000000
vn 0.000000 1.000000 -0.000000
vn 0.000000 1.000000 -0.000000
vn 0.000000 1.000000 -0.000000
vn 0.000000 1.000000 -0.000000
vn 0.000000 1.000000 -0.000000
vn 0.000000 1.000000 -0.000000
vn 0.000000 1.000000 -0.000000
vn 0.000000 1.000000 -0.000000
vn 0.000000 1.000000 0.000000
vn 0.000000 1.000000 -0.000000
vn 0.000000 1.000000 -0.000000
vn 0.000000 1.000000 -0.000000
vn 0.000000 1.000000 -0.000000
vn 0.000000 1.000000 0.000000
vn 0.000000 1.000000 0.000000
vn 0.000000 1.000000 0.000000
vn -0.000000 1.000000 -0.000000
vn 0.000000 1.000000 -0.000000
vn 0.000000 1.000000 0.000000
vn 0.000000 1.000000 -0.000000
vn 0.000000 1.000000 -0.000000
vn -0.000000 1.000000 -0.000000
vn -0.000000 1.000000 -0.000000
vn -0.000000 1.000000 -0.000000
vn -0.000000 1.000000 -0.000000
vn -0.000000 1.000000 0.000000
vn -0.000000 1.000000 -0.000000
vn 0.000000 1.000000 0.000000
vn 0.000000 1.000000 0.000000
vn -0.000000 1.000000 -0.000000
vn 0.000000 1.000000 0.000000
vn -0.000000 1.000000 -0.000000
vn -0.000000 1.000000 -0.000000
vn -0.000000 1.000000 -0.000000
vn -0.000000 1.000000 0.000000
vn -0.000000 1.000000 0.000000
vn -0.000000 1.000000 0.000000
vn 0.000000 1.000000 -0.000000
vn -0.000115 0.974659 -0.223698
vn -0.000660 0.974659 -0.223697
vn -0.000660 0.974659 -0.223697
vn -0.000115 0.974659 -0.223698
vn -0.223067 0.974759 0.009284
vn -0.223698 0.974659 -0.000001
vn -0.223698 0.974659 -0.000001
vn -0.223067 0.974759 0.009284
vn -0.000179 0.974659 -0.223697
vn 0.000000 0.974659 -0.223698
vn 0.000000 0.974659 -0.223698
vn -0.000179 0.974659 -0.223697
vn 0.000000 0.974659 0.223698
vn -0.009298 0.974757 0.223076
vn -0.009298 0.974757 0.223076
vn 0.000000 0.974659 0.223698
vn -0.207033 0.975720 0.071476
vn -0.207033 0.975720 0.071476
vn 0.000000 0.974659 -0.223698
vn 0.000000 0.974659 -0.223698
vn -0.154453 0.975852 0.154457
vn -0.154453 0.975852 0.154457
vn -0.070914 0.975731 0.207173
vn -0.070915 0.975731 0.207173
vn 0.000659 0.974659 -0.223696
vn 0.000115 0.974659 -0.223698
vn 0.000115 0.974659 -0.223698
vn 0.000659 0.974659 -0.223696
vn 0.223699 0.974658 -0.000000
vn 0.223068 0.974759 0.009284
vn 0.223068 0.974759 0.009284
vn 0.223699 0.974658 -0.000000
vn 0.000000 0.974659 -0.223698
vn 0.000181 0.974659 -0.223697
vn 0.000181 0.974659 -0.223697
vn 0.000000 0.974659 -0.223698
vn 0.009321 0.974757 0.223075
vn 0.000000 0.974659 0.223698
vn 0.000000 0.974659 0.223698
vn 0.009321 0.974757 0.223075
vn 0.207034 0.975719 0.071477
vn 0.207034 0.975719 0.071476
vn 0.154453 0.975852 0.154458
vn 0.154453 0.975852 0.154458
vn 0.070915 0.975731 0.207173
vn 0.070915 0.975731 0.207173
s 1
usemtl lambert3SG
f 24/1/1 25/2/2 26/3/3 27/4/4
f 28/5/5 29/6/6 30/7/7 31/8/8
f 32/9/9 33/10/10 34/11/11 35/12/12
f 34/11/11 36/13/13 37/14/14 35/12/12
f 38/15/15 28/5/5 31/8/8 39/16/16
f 40/17/17 24/1/1 27/4/4 41/18/18
f 32/9/9 35/12/12 26/3/3 25/2/2
f 42/19/19 43/20/20 38/15/15 39/16/16
f 27/4/4 43/20/20 42/19/19 41/18/18
f 26/3/3 44/21/21 43/20/20 27/4/4
f 35/12/12 37/14/14 44/21/21 26/3/3
s 4
f 45/22/22 46/23/23 47/24/24 48/25/25
f 49/26/26 31/8/27 30/7/28 50/27/29
f 51/28/30 52/29/31 53/30/32 54/31/33
f 53/30/32 52/29/31 55/32/34 56/33/35
f 57/34/36 39/16/37 31/8/27 49/26/26
f 40/17/38 41/18/39 46/23/23 45/22/22
f 51/28/30 48/25/25 47/24/24 52/29/31
f 42/19/40 39/16/37 57/34/36 58/35/41
f 46/23/23 41/18/39 42/19/40 58/35/41
f 47/24/24 46/23/23 58/35/41 59/36/42
f 52/29/31 47/24/24 59/36/42 55/32/34
s 6
f 1/37/43 2/38/44 25/2/45 24/1/46
s 7
f 3/39/47 4/40/48 29/6/49 28/5/50
s 6
f 5/41/51 6/42/52 33/10/53 32/9/54
s 7
f 7/43/55 8/44/56 37/14/57 36/13/58
f 9/45/59 3/39/47 28/5/50 38/15/60
s 6
f 10/46/61 1/37/43 24/1/46 40/17/62
f 2/38/44 5/41/51 32/9/54 25/2/45
s 7
f 11/47/63 9/45/59 38/15/60 43/20/64
f 12/48/65 11/47/63 43/20/64 44/21/66
f 8/44/56 12/48/65 44/21/66 37/14/57
s 6
f 14/49/67 13/50/68 45/22/69 48/25/70
s 9
f 16/51/71 15/52/72 49/26/73 50/27/74
s 6
f 18/53/75 17/54/76 51/28/77 54/31/78
s 9
f 19/55/79 20/56/80 56/33/81 55/32/82
f 15/52/72 21/57/83 57/34/84 49/26/73
s 6
f 13/50/68 10/46/61 40/17/62 45/22/69
f 17/54/76 14/49/67 48/25/70 51/28/77
s 9
f 21/57/83 22/58/85 58/35/86 57/34/84
f 22/58/85 23/59/87 59/36/88 58/35/86
f 23/59/87 19/55/79 55/32/82 59/36/88
