# This file uses centimeters as units for non-parametric coordinates.

mtllib Pipes_CurvedThin.mtl
v -40.481522 -15.886810 14.431424
v -37.893723 -12.324982 14.431424
v -37.893723 -7.922333 14.431424
v -40.481522 -4.360535 14.431424
v -44.668686 -3.000000 14.431424
v -48.855850 -4.360535 14.431424
v -51.443680 -7.922333 14.431424
v -51.443680 -12.324982 14.431424
v -48.855850 -15.886810 14.431424
v -44.668686 -17.247314 14.431424
v -30.900711 -15.886810 -4.187164
v -30.900711 -12.324982 -6.774976
v -30.900711 -7.922333 -6.774976
v -30.900711 -4.360535 -4.187162
v -30.900711 -3.000000 0.000007
v -30.900711 -4.360535 4.187176
v -30.900711 -7.922333 6.774987
v -30.900711 -12.324982 6.774987
v -30.900711 -15.886810 4.187175
v -30.900711 -17.247314 0.000006
v -37.712845 -12.324982 10.211289
v -40.272354 -15.886810 9.943695
v -44.413742 -17.247314 9.510714
v -48.555130 -15.886810 9.077740
v -51.114700 -12.324982 8.810144
v -51.114700 -7.922333 8.810144
v -48.555130 -4.360535 9.077740
v -44.413742 -3.000000 9.510715
v -40.272354 -4.360535 9.943695
v -37.712845 -7.922333 10.211289
v -37.124405 -12.324982 8.211466
v -39.360580 -15.886810 7.027302
v -42.978836 -17.247314 5.111268
v -46.597092 -15.886810 3.195246
v -48.833298 -12.324982 2.011074
v -48.833298 -7.922333 2.011074
v -46.597092 -4.360535 3.195246
v -42.978836 -3.000000 5.111271
v -39.360580 -4.360535 7.027302
v -37.124405 -7.922333 8.211466
v -36.575943 -12.324982 7.539835
v -37.887741 -15.886810 5.385789
v -40.010269 -17.247314 1.900448
v -42.132797 -15.886810 -1.584885
v -43.444626 -12.324982 -3.738942
v -43.444626 -7.922333 -3.738942
v -42.132797 -4.360535 -1.584885
v -40.010269 -3.000000 1.900453
v -37.887741 -4.360535 5.385789
v -36.575943 -7.922333 7.539835
v -34.976425 -12.324982 6.970142
v -35.284515 -15.886810 4.419839
v -35.783005 -17.247314 0.293365
v -36.281479 -15.886810 -3.833115
v -36.589584 -12.324982 -6.383422
v -36.589584 -7.922333 -6.383422
v -36.281479 -4.360535 -3.833114
v -35.783005 -3.000000 0.293365
v -35.284515 -4.360535 4.419839
v -34.976425 -7.922333 6.970142
v -4.000000 -12.324982 -6.774976
v -4.000000 -7.922333 -6.774976
v -4.000000 -4.360535 -4.187162
v -4.000000 -3.000000 0.000007
v -4.000000 -4.360535 4.187176
v -4.000000 -7.922333 6.774987
v -4.000000 -12.324982 6.774987
v -4.000000 -15.886810 4.187175
v -4.000000 -17.247314 0.000006
v -4.000000 -15.886810 -4.187164
v -37.893723 -12.324982 41.332134
v -37.893723 -7.922333 41.332134
v -40.481522 -4.360535 41.332134
v -44.668686 -3.000000 41.332134
v -48.855850 -4.360535 41.332134
v -51.443680 -7.922333 41.332134
v -51.443680 -12.324982 41.332134
v -48.855850 -15.886810 41.332134
v -44.668686 -17.247314 41.332134
v -40.481522 -15.886810 41.332134
v -4.000000 -13.252045 -9.628144
v -4.000000 -6.995300 -9.628144
v -4.000000 -1.933472 -5.950524
v -4.000000 0.000000 0.000007
v -4.000000 -1.933472 5.950538
v -4.000000 -6.995300 9.628157
v -4.000000 -13.252045 9.628157
v -4.000000 -18.313843 5.950533
v -4.000000 -20.247314 0.000006
v -4.000000 -18.313843 -5.950522
v -35.040543 -13.252045 41.332134
v -35.040543 -6.995300 41.332134
v -38.718155 -1.933472 41.332134
v -44.668686 0.000000 41.332134
v -50.619217 -1.933472 41.332134
v -54.296860 -6.995270 41.332134
v -54.296860 -13.252045 41.332134
v -50.619217 -18.313843 41.332134
v -44.668686 -20.247314 41.332134
v -38.718155 -18.313843 41.332134
v 0.000000 -13.252045 -9.628144
v 0.000000 -6.995300 -9.628144
v 0.000000 -1.933502 -5.950524
v 0.000000 0.000000 0.000007
v 0.000000 -1.933472 5.950538
v 0.000000 -6.995300 9.628157
v 0.000000 -13.252045 9.628157
v 0.000000 -18.313843 5.950533
v 0.000000 -20.247284 0.000006
v 0.000000 -18.313843 -5.950522
v -35.040543 -13.252045 45.332134
v -35.040543 -6.995300 45.332134
v -38.718155 -1.933472 45.332134
v -44.668686 0.000000 45.332134
v -50.619217 -1.933472 45.332134
v -54.296860 -6.995270 45.332134
v -54.296860 -13.252045 45.332134
v -50.619217 -18.313843 45.332134
v -44.668686 -20.247314 45.332134
v -38.718155 -18.313843 45.332134
vt 0.495583 0.850646
vt 0.514240 0.850646
vt 0.514240 0.874467
vt 0.495583 0.874467
vt 0.495583 0.736647
vt 0.514240 0.736647
vt 0.529334 0.850646
vt 0.529334 0.873333
vt 0.514240 0.903280
vt 0.495583 0.903280
vt 0.480489 0.850646
vt 0.480489 0.873333
vt 0.480489 0.736647
vt 0.529334 0.736647
vt 0.529334 0.898262
vt 0.514240 0.927647
vt 0.495583 0.927647
vt 0.480489 0.898262
vt 0.529334 0.918519
vt 0.480489 0.918519
vt 0.291436 0.218710
vt 0.273104 0.218710
vt 0.273104 0.201138
vt 0.291436 0.201138
vt 0.291436 0.330723
vt 0.273104 0.330723
vt 0.258273 0.218710
vt 0.258273 0.200024
vt 0.273104 0.192811
vt 0.291436 0.192811
vt 0.306267 0.218710
vt 0.306267 0.200024
vt 0.306267 0.330723
vt 0.258273 0.330723
vt 0.258273 0.187880
vt 0.273104 0.190014
vt 0.291436 0.190014
vt 0.306267 0.187880
vt 0.258273 0.181045
vt 0.306267 0.181045
vt 0.236251 0.583836
vt 0.236251 0.600854
vt 0.225222 0.604438
vt 0.225222 0.580252
vt 0.246254 0.614623
vt 0.239438 0.624004
vt 0.246254 0.570067
vt 0.239438 0.560685
vt 0.262440 0.619882
vt 0.262440 0.631478
vt 0.262440 0.564808
vt 0.262440 0.553212
vt 0.278625 0.614623
vt 0.285442 0.624004
vt 0.278625 0.570067
vt 0.285442 0.560685
vt 0.288629 0.600854
vt 0.299658 0.604438
vt 0.288629 0.583836
vt 0.299658 0.580252
vt 0.769888 0.910576
vt 0.769888 0.936466
vt 0.753336 0.936466
vt 0.753336 0.910576
vt 0.769888 0.957411
vt 0.753336 0.957411
vt 0.769888 0.889630
vt 0.753336 0.889630
vt 0.433373 0.928008
vt 0.433373 0.902117
vt 0.449925 0.902117
vt 0.449925 0.928008
vt 0.433373 0.881172
vt 0.449925 0.881172
vt 0.433373 0.948953
vt 0.449925 0.948953
vt 0.248942 0.157849
vt 0.246831 0.140374
vt 0.267507 0.139131
vt 0.267507 0.156864
vt 0.237917 0.161940
vt 0.228928 0.147180
vt 0.244720 0.122898
vt 0.267507 0.121399
vt 0.381432 0.139131
vt 0.381432 0.156864
vt 0.250247 0.168650
vt 0.267507 0.167823
vt 0.231680 0.168892
vt 0.216356 0.160778
vt 0.219939 0.132419
vt 0.243473 0.171062
vt 0.243415 0.112097
vt 0.267507 0.110439
vt 0.381432 0.121399
vt 0.381432 0.167823
vt 0.227818 0.181243
vt 0.210280 0.179409
vt 0.201033 0.152663
vt 0.214384 0.123297
vt 0.381432 0.110439
vt 0.226933 0.200248
vt 0.209200 0.200248
vt 0.192741 0.177575
vt 0.226933 0.314173
vt 0.209200 0.314173
vt 0.191467 0.200248
vt 0.191467 0.314173
vt 0.070322 0.831971
vt 0.072433 0.814496
vt 0.093110 0.815738
vt 0.093110 0.833471
vt 0.045542 0.822450
vt 0.054531 0.807690
vt 0.074545 0.797020
vt 0.093110 0.798005
vt 0.207035 0.815738
vt 0.207035 0.833471
vt 0.069018 0.842772
vt 0.093110 0.844430
vt 0.026636 0.802206
vt 0.041959 0.794092
vt 0.063520 0.792929
vt 0.039987 0.831572
vt 0.075849 0.786219
vt 0.093110 0.787046
vt 0.207035 0.798005
vt 0.207035 0.844430
vt 0.018344 0.777294
vt 0.035882 0.775460
vt 0.057283 0.785977
vt 0.069075 0.783807
vt 0.207035 0.787046
vt 0.017070 0.754621
vt 0.034803 0.754621
vt 0.053421 0.773626
vt 0.017070 0.640696
vt 0.034803 0.640696
vt 0.052535 0.754621
vt 0.052535 0.640696
vt 0.141539 0.924334
vt 0.141539 0.898111
vt 0.159166 0.898111
vt 0.159166 0.924334
vt 0.141539 0.871888
vt 0.159166 0.871888
vt 0.141539 0.940541
vt 0.159166 0.940541
vt 0.141539 0.855681
vt 0.159166 0.855681
vt 0.723801 0.934611
vt 0.723801 0.908388
vt 0.741428 0.908388
vt 0.741428 0.934611
vt 0.723801 0.882165
vt 0.741428 0.882165
vt 0.723801 0.950817
vt 0.741428 0.950817
vt 0.723801 0.865958
vt 0.741428 0.865958
vt 0.582839 0.583811
vt 0.582839 0.607398
vt 0.566984 0.607398
vt 0.566984 0.583811
vt 0.582839 0.630984
vt 0.566984 0.630984
vt 0.594409 0.630984
vt 0.594409 0.607398
vt 0.610264 0.607398
vt 0.610264 0.630984
vt 0.594409 0.583811
vt 0.610264 0.583811
vt 0.976505 0.604439
vt 0.959378 0.604439
vt 0.959378 0.582308
vt 0.976505 0.582308
vt 0.976505 0.631106
vt 0.959378 0.631106
vt 0.959378 0.477657
vt 0.976505 0.477657
vt 0.660680 0.968162
vt 0.643634 0.968162
vt 0.643634 0.952383
vt 0.660680 0.952383
vt 0.660680 0.974355
vt 0.643634 0.974355
vt 0.643634 0.848232
vt 0.660680 0.848232
vt 0.688055 0.064717
vt 0.688055 0.047699
vt 0.699084 0.044115
vt 0.699084 0.068301
vt 0.678051 0.033930
vt 0.684868 0.024549
vt 0.678051 0.078486
vt 0.684868 0.087867
vt 0.661866 0.028671
vt 0.661866 0.017075
vt 0.661866 0.083745
vt 0.661866 0.095341
vt 0.645680 0.033930
vt 0.638864 0.024549
vt 0.645680 0.078486
vt 0.638864 0.087867
vt 0.635677 0.047699
vt 0.624648 0.044115
vt 0.635677 0.064717
vt 0.624648 0.068301
vt 0.448141 0.134625
vt 0.448141 0.110439
vt 0.463603 0.110439
vt 0.463603 0.134625
vt 0.017070 0.041261
vt 0.017070 0.017075
vt 0.032532 0.017075
vt 0.032532 0.041261
vn 0.127163 -0.585002 0.801001
vn 0.120702 -0.585204 0.801852
vn 0.040940 -0.585659 0.809523
vn 0.040940 -0.585659 0.809523
vn 0.061095 -0.950162 0.305712
vn 0.056076 -0.950300 0.306244
vn 0.017601 -0.950556 0.310056
vn 0.017601 -0.950556 0.310056
vn -0.069890 -0.949910 -0.304609
vn -0.064452 -0.950097 -0.305223
vn -0.019551 -0.950555 -0.309939
vn -0.019551 -0.950556 -0.309939
vn -0.191525 -0.582443 -0.789986
vn -0.182911 -0.582981 -0.791629
vn -0.054472 -0.585666 -0.808720
vn -0.054472 -0.585666 -0.808720
vn -0.235240 0.000000 -0.971937
vn -0.235240 0.000000 -0.971937
vn -0.068666 0.000000 -0.997640
vn -0.068666 0.000000 -0.997640
vn -0.182911 0.582984 -0.791627
vn -0.191524 0.582447 -0.789984
vn -0.054472 0.585670 -0.808718
vn -0.054472 0.585670 -0.808718
vn -0.064453 0.950095 -0.305229
vn -0.069891 0.949908 -0.304615
vn -0.019552 0.950553 -0.309945
vn -0.019552 0.950553 -0.309945
vn 0.056077 0.950298 0.306250
vn 0.061096 0.950160 0.305718
vn 0.017602 0.950553 0.310062
vn 0.017602 0.950553 0.310062
vn 0.120702 0.585207 0.801850
vn 0.127162 0.585005 0.800999
vn 0.040940 0.585662 0.809521
vn 0.040940 0.585662 0.809521
vn 0.133562 0.000000 0.991040
vn 0.133562 0.000000 0.991040
vn 0.047828 0.000000 0.998856
vn 0.047828 0.000000 0.998856
vn 0.809368 -0.586182 0.036254
vn 0.809368 -0.586182 0.036254
vn 0.803602 -0.585126 0.108863
vn 0.803087 -0.584952 0.113501
vn 0.309800 -0.950679 0.015282
vn 0.309800 -0.950679 0.015282
vn 0.307219 -0.950350 0.049508
vn 0.306918 -0.950247 0.053215
vn -0.309724 -0.950679 -0.016750
vn -0.309724 -0.950679 -0.016750
vn -0.306407 -0.950222 -0.056508
vn -0.306032 -0.950087 -0.060660
vn -0.808841 -0.586194 -0.046408
vn -0.808841 -0.586194 -0.046408
vn -0.795991 -0.583748 -0.160114
vn -0.794889 -0.583358 -0.166870
vn -0.998292 0.000000 -0.058424
vn -0.998292 0.000000 -0.058424
vn -0.978620 0.000000 -0.205676
vn -0.978620 0.000000 -0.205676
vn -0.808838 0.586197 -0.046408
vn -0.808838 0.586197 -0.046408
vn -0.794887 0.583361 -0.166869
vn -0.795989 0.583751 -0.160114
vn -0.309730 0.950677 -0.016751
vn -0.309730 0.950677 -0.016751
vn -0.306038 0.950085 -0.060662
vn -0.306413 0.950220 -0.056509
vn 0.309807 0.950677 0.015283
vn 0.309807 0.950677 0.015283
vn 0.306924 0.950245 0.053217
vn 0.307226 0.950348 0.049509
vn 0.809365 0.586186 0.036253
vn 0.809365 0.586186 0.036253
vn 0.803084 0.584956 0.113500
vn 0.803600 0.585129 0.108862
vn 0.999083 0.000000 0.042821
vn 0.999083 0.000000 0.042821
vn 0.992438 0.000000 0.122750
vn 0.992438 0.000000 0.122750
vn 0.733652 -0.579284 0.355225
vn 0.732853 -0.579273 0.356888
vn 0.276251 -0.949032 0.151736
vn 0.274822 -0.948989 0.154576
vn -0.272581 -0.948945 -0.158755
vn -0.270759 -0.948870 -0.162283
vn -0.698973 -0.578710 -0.420157
vn -0.695715 -0.578490 -0.425829
vn -0.853246 0.000000 -0.521509
vn -0.853246 0.000000 -0.521509
vn -0.695713 0.578493 -0.425828
vn -0.698971 0.578714 -0.420156
vn -0.270764 0.948868 -0.162286
vn -0.272586 0.948943 -0.158758
vn 0.274828 0.948986 0.154579
vn 0.276257 0.949030 0.151739
vn 0.732851 0.579277 0.356887
vn 0.733650 0.579287 0.355224
vn 0.920141 0.000000 0.391588
vn 0.920141 0.000000 0.391588
vn 0.424667 -0.580988 0.694342
vn 0.431814 -0.581009 0.689902
vn 0.171302 -0.949045 0.264516
vn 0.175091 -0.949005 0.262170
vn -0.174937 -0.948856 -0.262812
vn -0.178497 -0.948800 -0.260611
vn -0.457639 -0.578269 -0.675405
vn -0.462878 -0.578118 -0.671955
vn -0.565474 0.000000 -0.824766
vn -0.565474 0.000000 -0.824766
vn -0.462877 0.578121 -0.671953
vn -0.457638 0.578272 -0.675403
vn -0.178500 0.948798 -0.260617
vn -0.174941 0.948853 -0.262817
vn 0.175095 0.949003 0.262175
vn 0.171305 0.949043 0.264522
vn 0.431813 0.581013 0.689900
vn 0.424666 0.580992 0.694340
vn 0.500359 0.000000 0.865818
vn 0.500359 0.000000 0.865818
vn 0.000000 0.000000 -1.000000
vn 0.000000 0.000000 -1.000000
vn 0.000000 0.000000 -1.000000
vn 0.000000 0.000000 -1.000000
vn 0.000000 0.587788 -0.809015
vn 0.000000 0.587788 -0.809015
vn 0.000000 0.587788 -0.809015
vn 0.000000 0.587788 -0.809015
vn 0.000000 0.951054 -0.309025
vn 0.000000 0.951054 -0.309025
vn 0.000000 0.951054 -0.309025
vn 0.000000 0.951054 -0.309025
vn 0.000000 0.951054 0.309025
vn 0.000000 0.951054 0.309025
vn 0.000000 0.951054 0.309025
vn 0.000000 0.951054 0.309025
vn 0.000000 0.587787 0.809016
vn 0.000000 0.587787 0.809016
vn 0.000000 0.587787 0.809016
vn 0.000000 0.587787 0.809016
vn 0.000000 0.000000 1.000000
vn 0.000000 0.000000 1.000000
vn 0.000000 0.000000 1.000000
vn 0.000000 0.000000 1.000000
vn 0.000000 -0.587784 0.809018
vn 0.000000 -0.587784 0.809018
vn 0.000000 -0.587784 0.809018
vn 0.000000 -0.587784 0.809018
vn 0.000000 -0.951056 0.309019
vn 0.000000 -0.951056 0.309019
vn 0.000000 -0.951056 0.309019
vn 0.000000 -0.951056 0.309019
vn 0.000000 -0.951056 -0.309019
vn 0.000000 -0.951056 -0.309019
vn 0.000000 -0.951056 -0.309019
vn 0.000000 -0.951056 -0.309019
vn 0.000000 -0.587784 -0.809018
vn 0.000000 -0.587784 -0.809018
vn 0.000000 -0.587784 -0.809018
vn 0.000000 -0.587784 -0.809018
vn 1.000000 0.000000 0.000000
vn 1.000000 0.000000 0.000000
vn 1.000000 0.000000 0.000000
vn 1.000000 0.000000 0.000000
vn 0.809017 0.587785 0.000000
vn 0.809017 0.587785 0.000000
vn 0.809017 0.587785 0.000000
vn 0.809017 0.587785 0.000000
vn 0.309026 0.951054 0.000000
vn 0.309026 0.951054 0.000000
vn 0.309026 0.951054 0.000000
vn 0.309026 0.951054 0.000000
vn -0.309026 0.951054 0.000000
vn -0.309026 0.951054 0.000000
vn -0.309026 0.951054 0.000000
vn -0.309026 0.951054 0.000000
vn -0.809013 0.587790 0.000000
vn -0.809013 0.587790 0.000000
vn -0.809013 0.587790 0.000000
vn -0.809013 0.587790 0.000000
vn -1.000000 0.000000 0.000000
vn -1.000000 0.000000 0.000000
vn -1.000000 0.000000 0.000000
vn -1.000000 0.000000 0.000000
vn -0.809016 -0.587787 0.000000
vn -0.809016 -0.587787 0.000000
vn -0.809016 -0.587787 0.000000
vn -0.809016 -0.587787 0.000000
vn -0.309019 -0.951056 0.000000
vn -0.309019 -0.951056 0.000000
vn -0.309019 -0.951056 0.000000
vn -0.309019 -0.951056 0.000000
vn 0.309019 -0.951056 0.000000
vn 0.309019 -0.951056 0.000000
vn 0.309019 -0.951056 0.000000
vn 0.309019 -0.951056 0.000000
vn 0.809019 -0.587782 0.000000
vn 0.809019 -0.587782 0.000000
vn 0.809019 -0.587782 0.000000
vn 0.809019 -0.587782 0.000000
vn -1.000000 0.000000 0.000000
vn -1.000000 0.000000 0.000000
vn -1.000000 0.000000 0.000000
vn -1.000000 0.000000 0.000000
vn -1.000000 0.000000 0.000000
vn -1.000000 0.000000 0.000000
vn -1.000000 0.000000 0.000000
vn -1.000000 0.000000 0.000000
vn -1.000000 0.000000 0.000000
vn -1.000000 0.000000 0.000000
vn -1.000000 0.000000 0.000000
vn -1.000000 0.000000 0.000000
vn -1.000000 0.000000 0.000000
vn -1.000000 0.000000 0.000000
vn -1.000000 0.000000 0.000000
vn -1.000000 0.000000 0.000000
vn -1.000000 0.000000 0.000000
vn -1.000000 0.000000 0.000000
vn -1.000000 0.000000 0.000000
vn -1.000000 0.000000 0.000000
vn -0.000000 0.000000 -1.000000
vn -0.000000 0.000000 -1.000000
vn -0.000000 0.000000 -1.000000
vn -0.000000 0.000000 -1.000000
vn 0.000001 0.000000 -1.000000
vn 0.000001 0.000000 -1.000000
vn 0.000000 0.000000 -1.000000
vn 0.000000 0.000000 -1.000000
vn 0.000000 0.000000 -1.000000
vn 0.000000 0.000000 -1.000000
vn -0.000000 0.000000 -1.000000
vn -0.000000 0.000000 -1.000000
vn -0.000001 0.000000 -1.000000
vn -0.000001 0.000000 -1.000000
vn -0.000000 0.000000 -1.000000
vn -0.000000 0.000000 -1.000000
vn 0.000000 0.000000 -1.000000
vn 0.000000 0.000000 -1.000000
vn 0.000000 0.000000 -1.000000
vn 0.000000 0.000000 -1.000000
vn 0.000000 0.000000 -1.000000
vn 0.000000 0.000000 -1.000000
vn 0.000000 0.000000 -1.000000
vn 0.000000 0.000000 -1.000000
vn 0.000002 0.587785 -0.809017
vn 0.000002 0.587785 -0.809017
vn 0.000002 0.587785 -0.809017
vn 0.000002 0.587785 -0.809017
vn 0.000004 0.951055 -0.309023
vn 0.000004 0.951055 -0.309023
vn 0.000004 0.951055 -0.309023
vn 0.000004 0.951055 -0.309023
vn 0.000000 0.951055 0.309021
vn 0.000000 0.951055 0.309021
vn 0.000000 0.951055 0.309021
vn 0.000000 0.951055 0.309021
vn 0.000000 0.587784 0.809018
vn 0.000000 0.587784 0.809018
vn 0.000000 0.587784 0.809018
vn 0.000000 0.587784 0.809018
vn 0.000000 0.000000 1.000000
vn 0.000000 0.000000 1.000000
vn 0.000000 0.000000 1.000000
vn 0.000000 0.000000 1.000000
vn 0.000000 -0.587786 0.809016
vn 0.000000 -0.587786 0.809016
vn 0.000000 -0.587786 0.809016
vn 0.000000 -0.587786 0.809016
vn 0.000004 -0.951056 0.309019
vn 0.000004 -0.951056 0.309019
vn 0.000004 -0.951056 0.309019
vn 0.000004 -0.951056 0.309019
vn 0.000004 -0.951056 -0.309019
vn 0.000004 -0.951056 -0.309019
vn 0.000004 -0.951056 -0.309019
vn 0.000004 -0.951056 -0.309019
vn 0.000000 -0.587786 -0.809016
vn 0.000000 -0.587786 -0.809016
vn 0.000000 -0.587786 -0.809016
vn 0.000000 -0.587786 -0.809016
vn 1.000000 0.000000 0.000000
vn 1.000000 0.000000 0.000000
vn 1.000000 0.000000 0.000000
vn 1.000000 0.000000 0.000000
vn 0.809019 0.587783 0.000000
vn 0.809019 0.587783 0.000000
vn 0.809019 0.587783 0.000000
vn 0.809019 0.587783 0.000000
vn 0.309021 0.951055 0.000000
vn 0.309021 0.951055 0.000000
vn 0.309021 0.951055 0.000000
vn 0.309021 0.951055 0.000000
vn -0.309021 0.951055 0.000000
vn -0.309021 0.951055 0.000000
vn -0.309021 0.951055 0.000000
vn -0.309021 0.951055 0.000000
vn -0.809015 0.587789 0.000000
vn -0.809015 0.587789 0.000000
vn -0.809015 0.587789 0.000000
vn -0.809015 0.587789 0.000000
vn -1.000000 0.000000 0.000000
vn -1.000000 0.000000 0.000000
vn -1.000000 0.000000 0.000000
vn -1.000000 0.000000 0.000000
vn -0.809015 -0.587789 0.000000
vn -0.809015 -0.587789 0.000000
vn -0.809015 -0.587789 0.000000
vn -0.809015 -0.587789 0.000000
vn -0.309021 -0.951055 0.000000
vn -0.309021 -0.951055 0.000000
vn -0.309021 -0.951055 0.000000
vn -0.309021 -0.951055 0.000000
vn 0.309021 -0.951055 0.000000
vn 0.309021 -0.951055 0.000000
vn 0.309021 -0.951055 0.000000
vn 0.309021 -0.951055 0.000000
vn 0.809017 -0.587785 0.000000
vn 0.809017 -0.587785 0.000000
vn 0.809017 -0.587785 0.000000
vn 0.809017 -0.587785 0.000000
s 1
usemtl lambert7SG
f 51/87/1 52/77/2 19/80/3 18/88/4
s 2
f 52/77/5 53/78/6 20/79/7 19/80/8
s 3
f 53/78/9 54/83/10 11/84/11 20/79/12
s 4
f 54/83/13 55/93/14 12/94/15 11/84/16
s 5
f 55/173/17 56/174/18 13/175/19 12/176/20
s 6
f 56/119/21 57/109/22 14/112/23 13/120/24
s 7
f 57/109/25 58/110/26 15/111/27 14/112/28
s 8
f 58/110/29 59/115/30 16/116/31 15/111/32
s 9
f 59/115/33 60/125/34 17/126/35 16/116/36
s 10
f 60/181/37 51/182/38 18/183/39 17/184/40
s 1
f 2/22/41 1/27/42 22/28/43 21/23/44
s 2
f 1/102/45 10/103/46 23/98/47 22/97/48
s 3
f 10/103/49 9/107/50 24/104/51 23/98/52
s 4
f 9/11/53 8/1/54 25/4/55 24/12/56
s 5
f 8/1/57 7/2/58 26/3/59 25/4/60
s 6
f 7/2/61 6/7/62 27/8/63 26/3/64
s 7
f 6/134/65 5/135/66 28/130/67 27/129/68
s 8
f 5/135/69 4/139/70 29/136/71 28/130/72
s 9
f 4/31/73 3/21/74 30/24/75 29/32/76
s 10
f 3/21/77 2/22/78 21/23/79 30/24/80
s 1
f 21/23/44 22/28/43 32/35/81 31/29/82
s 2
f 22/97/48 23/98/47 33/90/83 32/89/84
s 3
f 23/98/52 24/104/51 34/99/85 33/90/86
s 4
f 24/12/56 25/4/55 35/10/87 34/18/88
s 5
f 25/4/60 26/3/59 36/9/89 35/10/90
s 6
f 26/3/64 27/8/63 37/15/91 36/9/92
s 7
f 27/129/68 28/130/67 38/122/93 37/121/94
s 8
f 28/130/72 29/136/71 39/131/95 38/122/96
s 9
f 29/32/76 30/24/75 40/30/97 39/38/98
s 10
f 30/24/80 21/23/79 31/29/99 40/30/100
s 1
f 31/29/82 32/35/81 42/39/101 41/36/102
s 2
f 32/89/84 33/90/83 43/82/103 42/81/104
s 3
f 33/90/86 34/99/85 44/91/105 43/82/106
s 4
f 34/18/88 35/10/87 45/17/107 44/20/108
s 5
f 35/10/90 36/9/89 46/16/109 45/17/110
s 6
f 36/9/92 37/15/91 47/19/111 46/16/112
s 7
f 37/121/94 38/122/93 48/114/113 47/113/114
s 8
f 38/122/96 39/131/95 49/123/115 48/114/116
s 9
f 39/38/98 40/30/97 50/37/117 49/40/118
s 10
f 40/30/100 31/29/99 41/36/119 50/37/120
s 1
f 41/92/102 42/81/101 52/77/2 51/87/1
s 2
f 42/81/104 43/82/103 53/78/6 52/77/5
s 3
f 43/82/106 44/91/105 54/83/10 53/78/9
s 4
f 44/91/108 45/100/107 55/93/14 54/83/13
s 5
f 45/177/110 46/178/109 56/174/18 55/173/17
s 6
f 46/124/112 47/113/111 57/109/22 56/119/21
s 7
f 47/113/114 48/114/113 58/110/26 57/109/25
s 8
f 48/114/116 49/123/115 59/115/30 58/110/29
s 9
f 49/123/118 50/132/117 60/125/34 59/115/33
s 10
f 50/185/120 41/186/119 51/182/38 60/181/37
s off
f 12/176/121 13/175/122 62/179/123 61/180/124
f 13/120/125 14/112/126 63/118/127 62/128/128
f 14/112/129 15/111/130 64/117/131 63/118/132
f 15/111/133 16/116/134 65/127/135 64/117/136
f 16/116/137 17/126/138 66/133/139 65/127/140
f 17/184/141 18/183/142 67/187/143 66/188/144
f 18/88/145 19/80/146 68/86/147 67/96/148
f 19/80/149 20/79/150 69/85/151 68/86/152
f 20/79/153 11/84/154 70/95/155 69/85/156
f 11/84/157 12/94/158 61/101/159 70/95/160
f 2/22/161 3/21/162 72/25/163 71/26/164
f 3/21/165 4/31/166 73/33/167 72/25/168
f 4/139/169 5/135/170 74/138/171 73/140/172
f 5/135/173 6/134/174 75/137/175 74/138/176
f 6/7/177 7/2/178 76/6/179 75/14/180
f 7/2/181 8/1/182 77/5/183 76/6/184
f 8/1/185 9/11/186 78/13/187 77/5/188
f 9/107/189 10/103/190 79/106/191 78/108/192
f 10/103/193 1/102/194 80/105/195 79/106/196
f 1/27/197 2/22/198 71/26/199 80/34/200
s 21
f 61/41/201 62/42/202 82/43/203 81/44/204
f 62/42/202 63/45/205 83/46/206 82/43/203
f 63/45/205 64/49/207 84/50/208 83/46/206
f 64/49/207 65/53/209 85/54/210 84/50/208
f 65/53/209 66/57/211 86/58/212 85/54/210
f 66/57/211 67/59/213 87/60/214 86/58/212
f 67/59/213 68/55/215 88/56/216 87/60/214
f 68/55/215 69/51/217 89/52/218 88/56/216
f 69/51/217 70/47/219 90/48/220 89/52/218
f 70/47/219 61/41/201 81/44/204 90/48/220
s 22
f 71/189/221 72/190/222 92/191/223 91/192/224
f 72/190/222 73/193/225 93/194/226 92/191/223
f 73/193/225 74/197/227 94/198/228 93/194/226
f 74/197/227 75/201/229 95/202/230 94/198/228
f 75/201/229 76/205/231 96/206/232 95/202/230
f 76/205/231 77/207/233 97/208/234 96/206/232
f 77/207/233 78/203/235 98/204/236 97/208/234
f 78/203/235 79/199/237 99/200/238 98/204/236
f 79/199/237 80/195/239 100/196/240 99/200/238
f 80/195/239 71/189/221 91/192/224 100/196/240
s off
f 81/209/241 82/210/242 102/211/243 101/212/244
f 82/147/245 83/141/246 103/144/247 102/148/248
f 83/141/249 84/142/250 104/143/251 103/144/252
f 84/142/253 85/145/254 105/146/255 104/143/256
f 85/145/257 86/149/258 106/150/259 105/146/260
f 86/213/261 87/214/262 107/215/263 106/216/264
f 87/157/265 88/151/266 108/154/267 107/158/268
f 88/151/269 89/152/270 109/153/271 108/154/272
f 89/152/273 90/155/274 110/156/275 109/153/276
f 90/155/277 81/159/278 101/160/279 110/156/280
f 91/61/281 92/62/282 112/63/283 111/64/284
f 92/62/285 93/65/286 113/66/287 112/63/288
f 93/161/289 94/162/290 114/163/291 113/164/292
f 94/162/293 95/165/294 115/166/295 114/163/296
f 95/75/297 96/69/298 116/72/299 115/76/300
f 96/69/301 97/70/302 117/71/303 116/72/304
f 97/70/305 98/73/306 118/74/307 117/71/308
f 98/167/309 99/168/310 119/169/311 118/170/312
f 99/168/313 100/171/314 120/172/315 119/169/316
f 100/67/317 91/61/318 111/64/319 120/68/320
