# This file uses centimeters as units for non-parametric coordinates.

mtllib Ceiling_FourWay.mtl
v -154.956879 -36.243446 100.000122
v -113.865692 -36.243446 113.884399
v -103.410004 -36.243446 130.475220
v -130.475189 -36.243446 103.410034
v -100.000031 -36.243446 154.552856
v -154.956879 -36.243446 -100.000000
v -113.865692 -36.243446 -113.884399
v -103.410004 -36.243446 -130.475220
v -130.475189 -36.243446 -103.410034
v -100.000031 -36.243446 -154.552979
v -0.000031 -36.243446 154.552856
v -0.000031 -36.243446 130.475220
v -0.000031 -36.243446 -154.552979
v -0.000031 -36.243446 -130.475220
v 154.956879 -36.243446 100.000122
v 113.865662 -36.243446 113.884399
v 103.410004 -36.243446 130.475220
v 130.475189 -36.243446 103.410034
v 100.000000 -36.243446 154.552856
v 154.956879 -36.243446 -100.000000
v 113.865631 -36.243446 -113.884399
v 103.410004 -36.243446 -130.475220
v 130.475189 -36.243446 -103.410034
v 100.000000 -36.243446 -154.552979
v -154.956879 -36.243446 0.000000
v -130.475250 -36.243446 0.000122
v 130.475189 -36.243446 0.000122
v 154.956879 -36.243446 0.000000
v -113.865631 36.243462 113.884399
v -103.410004 36.243462 130.475220
v -100.000031 36.243462 154.552856
v -0.000031 36.243462 154.552856
v 103.410004 36.243462 130.475220
v 113.865662 36.243462 113.884399
v 100.000000 36.243462 154.552856
v -0.000031 36.243462 -154.552979
v -100.000031 36.243462 -154.552979
v -103.410004 36.243462 -130.475220
v -113.865631 36.243462 -113.884521
v 103.410004 36.243462 -130.475220
v 100.000000 36.243462 -154.552979
v 113.865631 36.243462 -113.884521
v -154.956879 36.243462 0.000000
v -130.475189 36.243462 -103.410034
v -154.956879 36.243462 -100.000000
v 154.956879 36.243462 0.000000
v 154.956879 36.243462 -100.000000
v 130.475189 36.243462 -103.410034
v -130.475189 36.243462 103.410034
v -154.956879 36.243462 100.000122
v 130.475189 36.243462 103.410034
v 154.956879 36.243462 100.000122
v -0.000031 -36.243462 113.919556
v -0.000031 -36.243462 -113.919556
v -113.865631 -36.243446 0.000000
v -0.000031 -36.243462 0.000000
v 113.865631 -36.243446 0.000000
vt 0.278017 0.458284
vt 0.301877 0.458284
vt 0.301877 0.530113
vt 0.278017 0.530113
vt 0.261577 0.530107
vt 0.097485 0.458281
vt 0.121344 0.458281
vt 0.121344 0.530111
vt 0.097485 0.530111
vt 0.137785 0.530105
vt 0.422546 0.087703
vt 0.398687 0.087703
vt 0.398686 0.015874
vt 0.422546 0.015873
vt 0.382246 0.015880
vt 0.438367 0.338248
vt 0.462226 0.338248
vt 0.462226 0.410078
vt 0.438367 0.410078
vt 0.421927 0.410072
vt 0.140341 0.380475
vt 0.235686 0.380475
vt 0.235686 0.449587
vt 0.140341 0.449588
vt 0.331031 0.380474
vt 0.331031 0.449587
vt 0.235684 0.084987
vt 0.140338 0.084987
vt 0.140338 0.015874
vt 0.235683 0.015874
vt 0.331029 0.084986
vt 0.331028 0.015873
vt 0.360086 0.232730
vt 0.360087 0.331327
vt 0.360085 0.134134
vt 0.383043 0.232730
vt 0.383044 0.328075
vt 0.383042 0.137385
vt 0.088326 0.232732
vt 0.111282 0.232732
vt 0.111282 0.331328
vt 0.088326 0.328077
vt 0.088325 0.137386
vt 0.111282 0.134135
vt 0.137089 0.357133
vt 0.235685 0.357132
vt 0.334282 0.357132
vt 0.137087 0.108329
vt 0.235684 0.108329
vt 0.334280 0.108329
vt 0.452156 0.232729
vt 0.452157 0.328074
vt 0.452155 0.137383
vt 0.019213 0.328077
vt 0.019213 0.232732
vt 0.019212 0.137387
vt 0.365793 0.087691
vt 0.341542 0.087691
vt 0.341542 0.015886
vt 0.365793 0.015886
vt 0.382247 0.087697
vt 0.381222 0.338261
vt 0.405473 0.338261
vt 0.405474 0.410066
vt 0.381222 0.410066
vt 0.421926 0.338255
vt 0.220872 0.458297
vt 0.245123 0.458297
vt 0.245124 0.530101
vt 0.220873 0.530101
vt 0.261577 0.458290
vt 0.154238 0.458294
vt 0.178489 0.458294
vt 0.178489 0.530098
vt 0.154238 0.530098
vt 0.137784 0.458287
vt 0.344269 0.341296
vt 0.344301 0.232730
vt 0.127067 0.232732
vt 0.127101 0.341297
vt 0.344267 0.124165
vt 0.127101 0.124166
vt 0.235685 0.341296
vt 0.235684 0.232731
vt 0.235684 0.124166
vn -0.000000 -1.000000 0.000001
vn 0.000000 -1.000000 0.000000
vn -0.000000 -1.000000 0.000000
vn -0.000000 -1.000000 0.000001
vn 0.000000 -1.000000 0.000000
vn 0.000000 -1.000000 -0.000000
vn -0.000000 -1.000000 -0.000000
vn 0.000000 -1.000000 0.000000
vn -0.000000 -1.000000 -0.000000
vn -0.000000 -1.000000 -0.000000
vn 0.000000 -1.000000 0.000000
vn 0.000000 -1.000000 0.000000
vn 0.000000 -1.000000 0.000000
vn 0.000000 -1.000000 0.000000
vn 0.000000 -1.000000 -0.000000
vn 0.000000 -1.000000 -0.000000
vn 0.000000 -1.000000 -0.000000
vn 0.000000 -1.000000 -0.000000
vn 0.000000 -1.000000 -0.000000
vn 0.000000 -1.000000 -0.000000
vn -0.000000 -1.000000 -0.000000
vn -0.000000 -1.000000 -0.000000
vn -0.000000 -1.000000 -0.000000
vn -0.000000 -1.000000 -0.000000
vn 0.000000 -1.000000 0.000000
vn 0.000000 -1.000000 0.000000
vn 0.000000 -1.000000 0.000000
vn 0.000000 -1.000000 0.000000
vn 0.000000 -1.000000 -0.000000
vn 0.000000 -1.000000 -0.000001
vn 0.000000 -1.000000 -0.000001
vn 0.000000 -1.000000 0.000000
vn 0.000000 -1.000000 0.000000
vn 0.000000 -1.000000 0.000000
vn 0.000000 -1.000000 0.000000
vn 0.000000 -1.000000 0.000000
vn 0.000000 -1.000000 0.000000
vn 0.000000 -1.000000 0.000000
vn 0.000000 -1.000000 0.000000
vn 0.000000 -1.000000 0.000000
vn 0.000000 -1.000000 0.000000
vn 0.000000 -1.000000 0.000000
vn 0.000000 -1.000000 0.000000
vn 0.000000 -1.000000 0.000000
vn 0.000000 -1.000000 0.000000
vn 0.000000 -1.000000 0.000000
vn 0.000000 -1.000000 0.000000
vn 0.000000 -1.000000 0.000000
vn 0.000000 -1.000000 0.000000
vn 0.000000 -1.000000 0.000000
vn -0.000000 -1.000000 0.000000
vn -0.000000 -1.000000 0.000000
vn -0.000000 -1.000000 0.000000
vn -0.000000 -1.000000 0.000000
vn 0.000000 -1.000000 0.000000
vn 0.000000 -1.000000 0.000000
vn 0.000000 -1.000000 0.000000
vn 0.000000 -1.000000 0.000000
vn 0.000000 -1.000000 0.000000
vn 0.000000 -1.000000 0.000000
vn 0.000000 -1.000000 0.000000
vn 0.000000 -1.000000 0.000000
vn 0.000000 -1.000000 0.000000
vn 0.000000 -1.000000 0.000000
vn -0.846014 0.000000 0.533161
vn -0.846014 0.000000 0.533161
vn -0.846014 0.000000 0.533161
vn -0.846014 0.000000 0.533161
vn -0.990120 0.000000 0.140225
vn -0.990120 0.000000 0.140225
vn -0.990120 0.000000 0.140225
vn -0.990120 0.000000 0.140225
vn 0.000000 0.000000 1.000000
vn 0.000000 0.000000 1.000000
vn 0.000000 0.000000 1.000000
vn 0.000000 0.000000 1.000000
vn 0.846014 0.000000 0.533161
vn 0.846014 0.000000 0.533161
vn 0.846014 0.000000 0.533161
vn 0.846014 0.000000 0.533161
vn 0.000000 0.000000 1.000000
vn 0.000000 0.000000 1.000000
vn 0.000000 0.000000 1.000000
vn 0.000000 0.000000 1.000000
vn 0.990120 0.000000 0.140226
vn 0.990120 0.000000 0.140226
vn 0.990120 0.000000 0.140226
vn 0.990120 0.000000 0.140226
vn 0.000000 0.000000 -1.000000
vn 0.000000 0.000000 -1.000000
vn 0.000000 0.000000 -1.000000
vn 0.000000 0.000000 -1.000000
vn -0.990120 0.000000 -0.140225
vn -0.990120 0.000000 -0.140225
vn -0.990120 0.000000 -0.140225
vn -0.990120 0.000000 -0.140225
vn -0.846014 0.000000 -0.533161
vn -0.846014 0.000000 -0.533161
vn -0.846014 0.000000 -0.533161
vn -0.846014 0.000000 -0.533161
vn 0.990120 0.000000 -0.140226
vn 0.990120 0.000000 -0.140226
vn 0.990120 0.000000 -0.140226
vn 0.990120 0.000000 -0.140226
vn 0.000000 0.000000 -1.000000
vn 0.000000 0.000000 -1.000000
vn 0.000000 0.000000 -1.000000
vn 0.000000 0.000000 -1.000000
vn 0.846015 -0.000001 -0.533160
vn 0.846015 -0.000001 -0.533160
vn 0.846015 -0.000001 -0.533160
vn 0.846015 -0.000001 -0.533160
vn -0.137960 0.000000 -0.990438
vn -0.137960 0.000000 -0.990438
vn -0.137960 0.000000 -0.990438
vn -0.137960 0.000000 -0.990438
vn -1.000000 0.000000 0.000000
vn -1.000000 0.000000 0.000000
vn -1.000000 0.000000 0.000000
vn -1.000000 0.000000 0.000000
vn -0.533413 -0.000001 -0.845855
vn -0.533413 -0.000001 -0.845855
vn -0.533413 -0.000001 -0.845855
vn -0.533413 -0.000001 -0.845855
vn 1.000000 0.000000 0.000000
vn 1.000000 0.000000 0.000000
vn 1.000000 0.000000 0.000000
vn 1.000000 0.000000 0.000000
vn 0.137960 0.000000 -0.990438
vn 0.137960 0.000000 -0.990438
vn 0.137960 0.000000 -0.990438
vn 0.137960 0.000000 -0.990438
vn 0.533413 -0.000001 -0.845855
vn 0.533413 -0.000001 -0.845855
vn 0.533413 -0.000001 -0.845855
vn 0.533413 -0.000001 -0.845855
vn -0.137951 0.000000 0.990439
vn -0.137951 0.000000 0.990439
vn -0.137951 0.000000 0.990439
vn -0.137951 0.000000 0.990439
vn -1.000000 0.000000 0.000000
vn -1.000000 0.000000 0.000000
vn -1.000000 0.000000 0.000000
vn -1.000000 0.000000 0.000000
vn -0.533413 0.000000 0.845855
vn -0.533413 0.000000 0.845855
vn -0.533413 0.000000 0.845855
vn -0.533413 0.000000 0.845855
vn 0.533413 0.000000 0.845855
vn 0.533413 0.000000 0.845855
vn 0.533413 0.000000 0.845855
vn 0.533413 0.000000 0.845855
vn 1.000000 0.000000 0.000000
vn 1.000000 0.000000 0.000000
vn 1.000000 0.000000 0.000000
vn 1.000000 0.000000 0.000000
vn 0.137951 0.000000 0.990439
vn 0.137951 0.000000 0.990439
vn 0.137951 0.000000 0.990439
vn 0.137951 0.000000 0.990439
s 1
usemtl lambert4SG
f 53/78/1 12/33/2 3/34/3 2/77/4
s 2
f 13/39/5 14/40/6 8/41/7 10/42/8
f 54/79/9 7/80/10 8/41/7 14/40/6
s 3
f 25/22/11 6/21/12 9/45/13 26/46/14
s off
f 26/46/15 9/45/16 7/80/17 55/83/18
s 1
f 3/34/3 12/33/2 11/36/19 5/37/20
s off
f 55/83/21 7/80/22 54/79/23 56/84/24
s 1
f 53/78/25 16/81/26 17/35/27 12/33/2
s 2
f 13/39/5 24/43/28 22/44/29 14/40/6
f 54/79/30 14/40/6 22/44/29 21/82/31
s 4
f 27/49/32 23/48/33 20/28/34 28/27/35
s off
f 57/85/36 21/82/37 23/48/38 27/49/39
s 1
f 17/35/27 19/38/40 11/36/19 12/33/2
s off
f 56/84/41 54/79/42 21/82/43 57/85/44
s 3
f 1/25/45 25/22/11 26/46/14 4/47/46
s off
f 4/47/47 26/46/48 55/83/49 2/77/50
f 2/77/51 55/83/52 56/84/53 53/78/54
f 16/81/55 53/78/56 56/84/57 57/85/58
f 18/50/59 16/81/60 57/85/61 27/49/62
s 4
f 15/31/63 18/50/64 27/49/32 28/27/35
s off
f 2/71/65 3/1/66 30/4/67 29/5/68
f 3/1/69 5/2/70 31/3/71 30/4/72
f 5/37/73 11/36/74 32/51/75 31/52/76
f 17/7/77 16/76/78 34/10/79 33/8/80
f 11/36/81 19/38/82 35/53/83 32/51/84
f 19/6/85 17/7/86 33/8/87 35/9/88
f 13/39/89 10/42/90 37/54/91 36/55/92
f 10/11/93 8/12/94 38/13/95 37/14/96
f 8/12/97 7/61/98 39/15/99 38/13/100
f 22/16/101 24/17/102 41/18/103 40/19/104
f 24/43/105 13/39/106 36/55/107 41/56/108
f 21/66/109 22/16/110 40/19/111 42/20/112
f 9/57/113 6/58/114 45/59/115 44/60/116
f 6/21/117 25/22/118 43/23/119 45/24/120
f 7/61/121 9/57/122 44/60/123 39/15/124
f 28/27/125 20/28/126 47/29/127 46/30/128
f 20/62/129 23/63/130 48/64/131 47/65/132
f 23/63/133 21/66/134 42/20/135 48/64/136
f 1/67/137 4/68/138 49/69/139 50/70/140
f 25/22/141 1/25/142 50/26/143 43/23/144
f 4/68/145 2/71/146 29/5/147 49/69/148
f 16/76/149 18/72/150 51/75/151 34/10/152
f 15/31/153 28/27/154 46/30/155 52/32/156
f 18/72/157 15/73/158 52/74/159 51/75/160
