# This file uses centimeters as units for non-parametric coordinates.

mtllib Ceiling_WithIndent_Large.mtl
v -200.000031 0.000000 240.000122
v -0.000031 0.000000 240.000122
v -200.000031 0.000000 0.000000
v -0.000031 0.000000 0.000000
v -163.731110 59.721695 240.000122
v -163.731110 59.721695 0.000000
v -100.000031 59.721695 0.000000
v -100.000031 59.721695 240.000122
v -36.268951 59.721695 0.000000
v -36.268951 59.721695 240.000122
v -36.268951 3.821106 240.000122
v -36.007355 2.433014 240.000122
v -35.258698 1.235245 240.000122
v -34.125519 0.392044 240.000122
v -32.763092 0.019028 240.000122
v -32.763092 0.019028 0.000000
v -34.125519 0.392044 0.000000
v -35.258698 1.235245 0.000000
v -36.007355 2.433014 0.000000
v -36.268951 3.821106 0.000000
v -167.236969 0.019028 240.000122
v -165.874542 0.392044 240.000122
v -164.741364 1.235245 240.000122
v -163.992706 2.433014 240.000122
v -163.731110 3.821106 240.000122
v -163.731110 3.821106 0.000000
v -163.992706 2.433014 0.000000
v -164.741364 1.235245 0.000000
v -165.874542 0.392044 0.000000
v -167.236969 0.019028 0.000000
vt 0.549388 0.687120
vt 0.549388 0.458291
vt 0.602686 0.458291
vt 0.602686 0.687120
vt 0.548041 0.687120
vt 0.548041 0.458291
vt 0.546694 0.687120
vt 0.546694 0.458291
vt 0.545347 0.687120
vt 0.545347 0.458291
vt 0.777514 0.458291
vt 0.777514 0.687120
vt 0.724215 0.687120
vt 0.724215 0.458291
vt 0.778861 0.687120
vt 0.778861 0.458291
vt 0.780207 0.687120
vt 0.780207 0.458291
vt 0.781554 0.687120
vt 0.781554 0.458291
vt 0.782901 0.458291
vt 0.814139 0.458291
vt 0.814139 0.687120
vt 0.782901 0.687120
vt 0.663451 0.458291
vt 0.663451 0.687120
vt 0.512763 0.458291
vt 0.544001 0.458291
vt 0.544001 0.687120
vt 0.512763 0.687120
vn -0.011488 -0.999934 0.000000
vn -0.000581 -1.000000 0.000000
vn -0.000581 -1.000000 0.000000
vn -0.011488 -0.999934 0.000000
vn 0.000000 -1.000000 0.000000
vn 0.000000 -1.000000 0.000000
vn 0.000000 -1.000000 0.000000
vn 0.000000 -1.000000 0.000000
vn 0.000000 -1.000000 0.000000
vn 0.000000 -1.000000 0.000000
vn 0.000581 -1.000000 0.000000
vn 0.011488 -0.999934 0.000000
vn 0.011488 -0.999934 0.000000
vn 0.000581 -1.000000 0.000000
vn 0.999990 -0.004566 0.000000
vn 0.999990 -0.004566 0.000000
vn 1.000000 0.000000 0.000000
vn 1.000000 0.000000 0.000000
vn -0.999990 -0.004566 0.000000
vn -0.999990 -0.004566 0.000000
vn -1.000000 0.000000 0.000000
vn -1.000000 0.000000 0.000000
vn -0.438084 -0.898934 0.000000
vn -0.438084 -0.898934 0.000000
vn -0.735187 -0.677864 0.000000
vn -0.735187 -0.677864 0.000000
vn -0.931443 -0.363888 0.000000
vn -0.931443 -0.363888 0.000000
vn 0.931443 -0.363888 0.000000
vn 0.931443 -0.363888 0.000000
vn 0.735187 -0.677864 0.000000
vn 0.735187 -0.677864 0.000000
vn 0.438084 -0.898934 0.000000
vn 0.438084 -0.898934 0.000000
s 1
usemtl lambert4SG
f 16/21/1 4/22/2 2/23/3 15/24/4
s 2
f 5/4/5 6/3/6 7/25/7 8/26/8
f 8/26/8 7/25/7 9/14/9 10/13/10
s 3
f 3/27/11 30/28/12 21/29/13 1/30/14
f 25/1/15 26/2/16 6/3/17 5/4/18
s 1
f 20/11/19 11/12/20 10/13/21 9/14/22
f 15/24/4 14/19/23 17/20/24 16/21/1
f 14/19/23 13/17/25 18/18/26 17/20/24
f 13/17/25 12/15/27 19/16/28 18/18/26
f 12/15/27 11/12/20 20/11/19 19/16/28
s 3
f 25/1/15 24/5/29 27/6/30 26/2/16
f 24/5/29 23/7/31 28/8/32 27/6/30
f 23/7/31 22/9/33 29/10/34 28/8/32
f 22/9/33 21/29/13 30/28/12 29/10/34
