# This file uses centimeters as units for non-parametric coordinates.

mtllib Ceiling_EndPiece.mtl
v -100.000031 34.779617 34.779419
v -100.000031 -34.779602 34.779419
v 100.000000 34.779617 34.779419
v 100.000000 -34.779617 34.779419
v 100.000000 34.779617 -34.779541
v 100.000000 -34.779617 -34.779541
v -100.000031 34.779617 -34.779541
v -100.000031 -34.779602 -34.779541
vt 0.914467 0.015874
vt 0.914466 0.082195
vt 0.848145 0.082195
vt 0.848145 0.015873
vt 0.848142 0.339206
vt 0.848145 0.272885
vt 0.914466 0.272886
vt 0.914464 0.339208
vt 0.980788 0.272885
vt 0.980788 0.082195
vt 0.781824 0.082195
vt 0.781824 0.272885
vn 0.000000 0.000000 1.000000
vn 0.000000 0.000000 1.000000
vn 0.000000 0.000000 1.000000
vn 0.000000 0.000000 1.000000
vn 1.000000 0.000000 0.000000
vn 1.000000 0.000000 0.000000
vn 1.000000 0.000000 0.000000
vn 1.000000 0.000000 0.000000
vn 0.000000 0.000000 -1.000000
vn 0.000000 0.000000 -1.000000
vn 0.000000 0.000000 -1.000000
vn 0.000000 0.000000 -1.000000
vn -1.000000 0.000000 0.000000
vn -1.000000 0.000000 0.000000
vn -1.000000 0.000000 0.000000
vn -1.000000 0.000000 0.000000
vn -0.000000 -1.000000 0.000000
vn -0.000000 -1.000000 0.000000
vn -0.000000 -1.000000 0.000000
vn -0.000000 -1.000000 0.000000
s off
usemtl lambert4SG
f 1/9/1 2/7/2 4/2/3 3/10/4
f 3/1/5 4/2/6 6/3/7 5/4/8
f 5/11/9 6/3/10 8/6/11 7/12/12
f 7/5/13 8/6/14 2/7/15 1/8/16
f 2/7/17 8/6/18 6/3/19 4/2/20
