# This file uses centimeters as units for non-parametric coordinates.

mtllib Ceiling_Turn.mtl
v 72.643921 -36.243454 127.343872
v -127.356110 -36.243454 -72.656006
v 127.356110 -36.243454 127.209106
v 127.356110 -36.243454 -72.790894
v -124.002716 -36.243454 104.335571
v -119.498749 -36.243454 113.435669
v -113.353302 -36.243454 119.581177
v -104.253326 -36.243454 124.085083
v -90.542084 -36.243454 126.687622
v -72.361542 -36.243454 127.343872
v -127.356049 -36.243454 72.349243
v 86.509583 -36.243454 -86.675415
v 76.053925 -36.243454 -103.266113
v 103.119110 -36.243454 -76.200928
v -126.605438 -36.243454 90.624146
v 72.643921 -36.243454 -127.343872
v -127.356110 -36.243454 -127.343872
v 86.509583 36.243454 -86.675415
v -127.356110 36.243454 -72.656006
v -127.356110 36.243454 -127.343872
v 76.053925 36.243454 -103.266113
v 72.643921 36.243454 -127.343872
v -124.002716 36.243454 104.335571
v -126.605438 36.243454 90.624146
v -119.498749 36.243454 113.435669
v -113.353302 36.243454 119.581177
v -104.253326 36.243454 124.085083
v -90.542084 36.243454 126.687622
v -72.361542 36.243454 127.343872
v 72.643921 36.243454 127.343872
v -127.356049 36.243454 72.349243
v 127.356110 36.243454 127.209106
v 127.356110 36.243454 -72.790894
v 103.119110 36.243454 -76.200928
v 100.000031 -36.243454 127.276489
v 100.000031 36.243454 127.276489
v -127.356110 -36.243454 -100.000000
v -127.356110 36.243454 -100.000000
vt 0.019212 0.805463
vt 0.019212 0.779189
vt 0.088863 0.779189
vt 0.088863 0.805463
vt 0.019212 0.752915
vt 0.088863 0.752915
vt 0.019212 0.613583
vt 0.088863 0.613583
vt 0.019212 0.596023
vt 0.088863 0.596023
vt 0.019212 0.582848
vt 0.088863 0.582848
vt 0.019212 0.574105
vt 0.088863 0.574105
vt 0.019300 0.568200
vt 0.088775 0.568200
vt 0.071102 0.015873
vt 0.096645 0.015873
vt 0.096645 0.092772
vt 0.071102 0.092772
vt 0.053501 0.015873
vt 0.053501 0.092772
vt 0.042389 0.017769
vt 0.042389 0.090876
vt 0.503881 0.527397
vt 0.313190 0.527397
vt 0.313190 0.458284
vt 0.503881 0.458284
vt 0.287248 0.770252
vt 0.284134 0.576311
vt 0.299952 0.566342
vt 0.313319 0.770252
vt 0.261177 0.770252
vt 0.261177 0.579562
vt 0.468999 0.769537
vt 0.451575 0.770252
vt 0.504009 0.579562
vt 0.504009 0.717818
vt 0.503384 0.735152
vt 0.500902 0.748225
vt 0.496608 0.756902
vt 0.490748 0.762761
vt 0.482072 0.767055
vt 0.309939 0.550505
vt 0.503945 0.553479
vt 0.192064 0.770253
vt 0.192064 0.579562
vt 0.019387 0.559500
vt 0.088688 0.559500
vt 0.019387 0.546391
vt 0.088688 0.546391
vt 0.019387 0.529010
vt 0.088688 0.529010
vt 0.019387 0.390379
vt 0.088687 0.390379
vt 0.019387 0.364225
vt 0.088687 0.364225
vt 0.019387 0.338072
vt 0.088687 0.338072
vt 0.019212 0.019665
vt 0.019213 0.088980
vn 0.000000 -1.000000 0.000000
vn 0.000000 -1.000000 0.000000
vn 0.000000 -1.000000 -0.000000
vn 0.000000 -1.000000 -0.000000
vn 0.000000 -1.000000 -0.000000
vn 0.000000 -1.000000 -0.000000
vn 0.000000 -1.000000 -0.000000
vn 0.000000 -1.000000 -0.000000
vn 0.000000 -1.000000 -0.000000
vn 0.000000 -1.000000 -0.000000
vn 0.000000 -1.000000 -0.000000
vn 0.000000 -1.000000 -0.000000
vn 0.000000 -1.000000 -0.000000
vn 0.000000 -1.000000 -0.000000
vn 0.000000 -1.000000 -0.000000
vn 0.000000 -1.000000 -0.000000
vn 0.000000 -1.000000 -0.000000
vn -1.000000 0.000000 0.000000
vn -1.000000 0.000000 0.000000
vn -1.000000 0.000000 0.000000
vn -1.000000 0.000000 0.000000
vn 0.990120 0.000000 -0.140225
vn 0.990120 0.000000 -0.140225
vn 0.990120 0.000000 -0.140225
vn 0.990120 0.000000 -0.140225
vn 0.000000 0.000000 -1.000000
vn 0.000000 0.000000 -1.000000
vn 0.000000 0.000000 -1.000000
vn 0.000000 0.000000 -1.000000
vn -0.982457 0.000000 0.186490
vn -0.982457 0.000000 0.186490
vn -0.982457 0.000000 0.186490
vn -0.982457 0.000000 0.186490
vn -0.896232 0.000000 0.443586
vn -0.896232 0.000000 0.443586
vn -0.896232 0.000000 0.443586
vn -0.896232 0.000000 0.443586
vn -0.707110 0.000000 0.707103
vn -0.707110 0.000000 0.707103
vn -0.707110 0.000000 0.707103
vn -0.707110 0.000000 0.707103
vn -0.443590 0.000000 0.896230
vn -0.443590 0.000000 0.896230
vn -0.443590 0.000000 0.896230
vn -0.443590 0.000000 0.896230
vn -0.186472 0.000000 0.982460
vn -0.186472 0.000000 0.982460
vn -0.186472 0.000000 0.982460
vn -0.186472 0.000000 0.982460
vn -0.036079 0.000000 0.999349
vn -0.036079 0.000000 0.999349
vn -0.036079 0.000000 0.999349
vn -0.036079 0.000000 0.999349
vn 0.000000 0.000000 1.000000
vn 0.000000 0.000000 1.000000
vn 0.000000 0.000000 1.000000
vn 0.000000 0.000000 1.000000
vn -1.000000 0.000000 0.000000
vn -1.000000 0.000000 0.000000
vn -1.000000 0.000000 0.000000
vn -1.000000 0.000000 0.000000
vn -0.999158 0.000000 0.041039
vn -0.999158 0.000000 0.041039
vn -0.999158 0.000000 0.041039
vn -0.999158 0.000000 0.041039
vn 1.000000 0.000000 0.000000
vn 1.000000 0.000000 0.000000
vn 1.000000 0.000000 0.000000
vn 1.000000 0.000000 0.000000
vn 0.139326 0.000000 -0.990247
vn 0.139326 0.000000 -0.990247
vn 0.139326 0.000000 -0.990247
vn 0.139326 0.000000 -0.990247
vn 0.002466 0.000000 0.999997
vn 0.002462 0.000000 0.999997
vn 0.002462 0.000000 0.999997
vn 0.002466 0.000000 0.999997
vn 0.533413 0.000000 -0.845855
vn 0.533413 0.000000 -0.845855
vn 0.533413 0.000000 -0.845855
vn 0.533413 0.000000 -0.845855
vn 0.846011 0.000000 -0.533166
vn 0.846011 0.000000 -0.533166
vn 0.846011 0.000000 -0.533166
vn 0.846011 0.000000 -0.533166
vn 0.002458 0.000000 0.999997
vn 0.002458 0.000000 0.999997
vn -1.000000 0.000000 0.000000
vn -1.000000 0.000000 0.000000
vn 0.000000 -1.000000 0.000000
vn 0.000000 -1.000000 0.000000
s 1
usemtl lambert4SG
f 37/29/1 13/30/2 12/31/3 2/32/4
f 15/35/5 11/36/6 2/32/4 12/31/3 1/37/7 10/38/8 9/39/9 8/40/10 7/41/11 6/42/12 5/43/13
f 3/25/14 35/45/15 14/44/16 4/26/17
s 2
f 17/1/18 37/2/19 38/3/20 20/4/21
s off
f 13/17/22 16/18/23 22/19/24 21/20/25
f 16/34/26 17/33/27 20/46/28 22/47/29
f 15/9/30 5/11/31 23/12/32 24/10/33
f 5/11/34 6/13/35 25/14/36 23/12/37
f 6/13/38 7/15/39 26/16/40 25/14/41
f 7/15/42 8/48/43 27/49/44 26/16/45
f 8/48/46 9/50/47 28/51/48 27/49/49
f 9/50/50 10/52/51 29/53/52 28/51/53
f 10/52/54 1/54/55 30/55/56 29/53/57
f 2/5/58 11/7/59 31/8/60 19/6/61
f 11/7/62 15/9/63 24/10/64 31/8/65
f 3/25/66 4/26/67 33/27/68 32/28/69
f 4/60/70 14/23/71 34/24/72 33/61/73
s 3
f 1/54/74 35/56/75 36/57/76 30/55/77
s off
f 14/23/78 12/21/79 18/22/80 34/24/81
f 12/21/82 13/17/83 21/20/84 18/22/85
s 3
f 36/57/76 35/56/75 3/58/86 32/59/87
s 2
f 38/3/20 37/2/19 2/5/88 19/6/89
s 1
f 14/44/16 35/45/15 1/37/7 12/31/3
f 17/33/90 16/34/91 13/30/2 37/29/1
