# This file uses centimeters as units for non-parametric coordinates.

mtllib Ceiling_WithIndent_Small.mtl
v -199.999908 -0.000016 120.109985
v 0.000031 -0.000016 120.109985
v -199.999908 -0.000000 0.000000
v 0.000031 -0.000000 0.000000
v -163.731110 59.721695 120.109985
v -163.731110 59.721695 0.000000
v -99.999908 59.721695 0.000000
v -99.999908 59.721695 120.109985
v -36.268829 59.721695 0.000000
v -36.268829 59.721695 120.109985
v -36.268829 3.787719 120.109985
v -36.007355 2.399627 120.109985
v -35.258698 1.201858 120.109985
v -34.125397 0.358658 120.109985
v -32.762970 -0.014359 120.109985
v -32.762970 -0.014344 0.000000
v -34.125397 0.358673 0.000000
v -35.258698 1.201874 0.000000
v -36.007355 2.399643 0.000000
v -36.268829 3.787735 0.000000
v -167.236969 -0.014359 120.109985
v -165.874542 0.358658 120.109985
v -164.741364 1.201858 120.109985
v -163.992584 2.399627 120.109985
v -163.731110 3.787719 120.109985
v -163.731110 3.787735 0.000000
v -163.992584 2.399643 0.000000
v -164.741364 1.201874 0.000000
v -165.874542 0.358673 0.000000
v -167.236969 -0.014344 0.000000
vt 0.549388 0.810336
vt 0.549388 0.695817
vt 0.602718 0.695817
vt 0.602718 0.810336
vt 0.548041 0.810336
vt 0.548041 0.695817
vt 0.546694 0.810336
vt 0.546694 0.695817
vt 0.545347 0.810336
vt 0.545347 0.695817
vt 0.777578 0.695817
vt 0.777578 0.810336
vt 0.724247 0.810336
vt 0.724247 0.695817
vt 0.778924 0.810336
vt 0.778924 0.695817
vt 0.780271 0.810336
vt 0.780271 0.695817
vt 0.781618 0.810336
vt 0.781618 0.695817
vt 0.782965 0.695817
vt 0.814203 0.695817
vt 0.814203 0.810336
vt 0.782965 0.810336
vt 0.663483 0.695817
vt 0.663483 0.810336
vt 0.512763 0.695817
vt 0.544001 0.695817
vt 0.544001 0.810336
vt 0.512763 0.810336
vn -0.010510 -0.999945 -0.000000
vn 0.000438 -1.000000 -0.000000
vn 0.000438 -1.000000 -0.000000
vn -0.010510 -0.999945 -0.000000
vn 0.000000 -1.000000 0.000000
vn 0.000000 -1.000000 0.000000
vn 0.000000 -1.000000 0.000000
vn 0.000000 -1.000000 0.000000
vn 0.000000 -1.000000 0.000000
vn 0.000000 -1.000000 0.000000
vn -0.000438 -1.000000 -0.000000
vn 0.010510 -0.999945 -0.000000
vn 0.010510 -0.999945 -0.000000
vn -0.000438 -1.000000 -0.000000
vn 0.999990 -0.004562 -0.000000
vn 0.999990 -0.004562 -0.000000
vn 1.000000 0.000000 0.000000
vn 1.000000 0.000000 0.000000
vn -0.999990 -0.004562 -0.000000
vn -0.999990 -0.004562 -0.000000
vn -1.000000 0.000000 0.000000
vn -1.000000 0.000000 0.000000
vn -0.438076 -0.898938 -0.000000
vn -0.438076 -0.898938 -0.000000
vn -0.735170 -0.677883 -0.000000
vn -0.735170 -0.677883 -0.000000
vn -0.931453 -0.363863 -0.000000
vn -0.931453 -0.363863 -0.000000
vn 0.931437 -0.363903 -0.000000
vn 0.931437 -0.363903 -0.000000
vn 0.735170 -0.677883 -0.000000
vn 0.735170 -0.677883 -0.000000
vn 0.438085 -0.898933 -0.000000
vn 0.438085 -0.898934 -0.000000
s 1
usemtl lambert4SG
f 16/21/1 4/22/2 2/23/3 15/24/4
s 2
f 5/4/5 6/3/6 7/25/7 8/26/8
f 8/26/8 7/25/7 9/14/9 10/13/10
s 3
f 3/27/11 30/28/12 21/29/13 1/30/14
f 25/1/15 26/2/16 6/3/17 5/4/18
s 1
f 20/11/19 11/12/20 10/13/21 9/14/22
f 15/24/4 14/19/23 17/20/24 16/21/1
f 14/19/23 13/17/25 18/18/26 17/20/24
f 13/17/25 12/15/27 19/16/28 18/18/26
f 12/15/27 11/12/20 20/11/19 19/16/28
s 3
f 25/1/15 24/5/29 27/6/30 26/2/16
f 24/5/29 23/7/31 28/8/32 27/6/30
f 23/7/31 22/9/33 29/10/34 28/8/32
f 22/9/33 21/29/13 30/28/12 29/10/34
